<svg xmlns="http://www.w3.org/2000/svg" viewBox="0 0 450 305.6">
  <title>postcard_back</title>
  <g id="Layer_2" data-name="Layer 2">
    <g id="Layer_2-2" data-name="Layer 2">
      <rect y="285.6" width="450" height="20" style="fill: #eb4b2e"/>
      <rect width="450" height="20" style="fill: #eb4b2e"/>
      <rect x="287.27" y="142.73" width="305.47" height="20" transform="translate(592.73 -287.27) rotate(90)" style="fill: #eb4b2e"/>
      <rect x="-142.73" y="142.73" width="305.47" height="20" transform="translate(162.73 142.73) rotate(90)" style="fill: #eb4b2e"/>
      <line x1="190.2" y1="30" x2="190.2" y2="276" style="fill: none;stroke: #eb4b2e;stroke-linecap: round;stroke-miterlimit: 10"/>
      <g id="text">
        <g style="isolation: isolate">
          <path d="M337.36,55.33v3.85a2,2,0,0,0,.13.82.89.89,0,0,0,.89.49,1.17,1.17,0,0,0,1.17-.69,2.52,2.52,0,0,0,.16-1V55.33h1.69v6.39h-1.62v-.9l-.12.18a1.18,1.18,0,0,1-.22.26,2.31,2.31,0,0,1-.76.48,2.57,2.57,0,0,1-.86.13,1.91,1.91,0,0,1-1.91-1,3.92,3.92,0,0,1-.27-1.66V55.33Z"/>
          <path d="M344.32,59.67a1.11,1.11,0,0,0,.23.63,1.56,1.56,0,0,0,1.15.33,1.77,1.77,0,0,0,.79-.15.47.47,0,0,0,.29-.44.47.47,0,0,0-.23-.43,9.58,9.58,0,0,0-1.75-.5,3.63,3.63,0,0,1-1.53-.67,1.46,1.46,0,0,1-.45-1.15,2,2,0,0,1,.7-1.52,2.8,2.8,0,0,1,2-.64,3.6,3.6,0,0,1,2,.48,2,2,0,0,1,.87,1.65h-1.67a1,1,0,0,0-.18-.51,1.15,1.15,0,0,0-.94-.34,1.35,1.35,0,0,0-.78.17.49.49,0,0,0-.23.4.44.44,0,0,0,.25.42,10.67,10.67,0,0,0,1.74.46,3.19,3.19,0,0,1,1.5.71,1.61,1.61,0,0,1,.49,1.2,1.94,1.94,0,0,1-.71,1.55,3.33,3.33,0,0,1-2.19.6,3.3,3.3,0,0,1-2.23-.64,2.07,2.07,0,0,1-.72-1.62Z"/>
          <path d="M351.42,54.57h-1.69V53h1.69Zm-1.69.76h1.69v6.39h-1.69Z"/>
          <path d="M358.19,55.69a2.11,2.11,0,0,1,.63,1.72v4.3H357.1V57.83a1.77,1.77,0,0,0-.13-.77.94.94,0,0,0-.93-.49,1.15,1.15,0,0,0-1.16.72,2.49,2.49,0,0,0-.16,1v3.46H353V55.34h1.62v.93a2.81,2.81,0,0,1,.61-.71,2.1,2.1,0,0,1,1.3-.39A2.45,2.45,0,0,1,358.19,55.69Z"/>
          <path d="M363.53,55.32a2,2,0,0,1,1,.93v-.92h1.63v6.06a3.39,3.39,0,0,1-.42,1.86A3.06,3.06,0,0,1,363,64.33a3.74,3.74,0,0,1-2-.48,1.77,1.77,0,0,1-.86-1.44h1.82a.75.75,0,0,0,.23.42,1.41,1.41,0,0,0,.91.23,1.22,1.22,0,0,0,1.21-.6,3.06,3.06,0,0,0,.2-1.3v-.41a2,2,0,0,1-.52.62,2.07,2.07,0,0,1-1.29.38,2.45,2.45,0,0,1-2-.86,3.49,3.49,0,0,1-.74-2.34,4,4,0,0,1,.71-2.39,2.34,2.34,0,0,1,2-1A2.2,2.2,0,0,1,363.53,55.32Zm.57,4.58a2.05,2.05,0,0,0,.4-1.41,2.16,2.16,0,0,0-.38-1.38,1.25,1.25,0,0,0-1-.47,1.21,1.21,0,0,0-1.21.83,3,3,0,0,0-.17,1.08,2.49,2.49,0,0,0,.19,1,1.22,1.22,0,0,0,1.21.81A1.28,1.28,0,0,0,364.1,59.9Z"/>
          <path d="M374.19,55.32a2,2,0,0,1,1,.93v-.92h1.63v6.06a3.39,3.39,0,0,1-.42,1.86,3.06,3.06,0,0,1-2.74,1.08,3.74,3.74,0,0,1-2-.48,1.77,1.77,0,0,1-.86-1.44h1.82a.75.75,0,0,0,.23.42,1.41,1.41,0,0,0,.91.23,1.22,1.22,0,0,0,1.21-.6,3.06,3.06,0,0,0,.2-1.3v-.41a2,2,0,0,1-.52.62,2.07,2.07,0,0,1-1.29.38,2.45,2.45,0,0,1-2-.86,3.49,3.49,0,0,1-.74-2.34,4,4,0,0,1,.71-2.39,2.34,2.34,0,0,1,2-1A2.2,2.2,0,0,1,374.19,55.32Zm.57,4.58a2.05,2.05,0,0,0,.4-1.41,2.16,2.16,0,0,0-.38-1.38,1.25,1.25,0,0,0-1-.47,1.21,1.21,0,0,0-1.21.83,3,3,0,0,0-.17,1.08,2.49,2.49,0,0,0,.19,1,1.22,1.22,0,0,0,1.21.81A1.28,1.28,0,0,0,374.76,59.9Z"/>
          <path d="M381,53l.35,0v1.36l-.47,0a.54.54,0,0,0-.46.15.53.53,0,0,0-.13.34v.54h1.1v1.18h-1.1v5.15h-1.66V56.56h-.94V55.39h.91V55a2.16,2.16,0,0,1,.35-1.41q.36-.57,1.75-.57Z"/>
          <path d="M381.7,56.58V55.39h.89V53.6h1.65v1.78h1v1.19h-1V60a.76.76,0,0,0,.1.49,1.1,1.1,0,0,0,.61.1h.33v1.25l-.79,0a2.12,2.12,0,0,1-1.62-.41,1.22,1.22,0,0,1-.28-.88V56.58Z"/>
          <path d="M388.07,54.57h-1.69V53h1.69Zm-1.69.76h1.69v6.39h-1.69Z"/>
        </g>
        <path id="heart" d="M316.4,67.5s-6.3-6.4-7.9-9.1c-2.4-3.9,1.9-9.1,5.3-6.9l2.5,1.6,2.5-1.6c3.4-2.2,7.7,2.9,5.3,6.9C322.7,61.1,316.4,67.5,316.4,67.5Z" style="fill: #eb4b2e"/>
        <g style="isolation: isolate">
          <path d="M247.86,55.35a1.86,1.86,0,0,1,.74.57,1.83,1.83,0,0,1,.36.82,5.67,5.67,0,0,1,.06.94v4H247.3V57.65a1.33,1.33,0,0,0-.12-.6.83.83,0,0,0-.82-.45,1,1,0,0,0-1,.57,1.8,1.8,0,0,0-.13.73v3.8h-1.68v-3.8a2.14,2.14,0,0,0-.12-.83.82.82,0,0,0-.83-.46,1,1,0,0,0-1,.46,1.78,1.78,0,0,0-.13.79v3.84h-1.69V55.34h1.62v.93a2.69,2.69,0,0,1,.59-.71,2.32,2.32,0,0,1,2.44-.05,1.87,1.87,0,0,1,.55.77,2.12,2.12,0,0,1,.81-.83,2.49,2.49,0,0,1,1.15-.26A2.22,2.22,0,0,1,247.86,55.35Z"/>
          <path d="M253.09,57.83a2.67,2.67,0,0,0,.67-.15.5.5,0,0,0,.36-.47.56.56,0,0,0-.28-.54,1.75,1.75,0,0,0-.81-.15,1.06,1.06,0,0,0-.85.29,1.2,1.2,0,0,0-.24.59h-1.61A2.44,2.44,0,0,1,250.8,56a2.75,2.75,0,0,1,2.28-.84,4.07,4.07,0,0,1,1.87.42,1.59,1.59,0,0,1,.82,1.57v2.93q0,.3,0,.74a.93.93,0,0,0,.1.45.6.6,0,0,0,.25.19v.25h-1.82a1.86,1.86,0,0,1-.11-.36q0-.17,0-.39a3.46,3.46,0,0,1-.8.64,2.42,2.42,0,0,1-1.23.31,2.12,2.12,0,0,1-1.44-.5,1.76,1.76,0,0,1-.57-1.4,1.82,1.82,0,0,1,.92-1.71,4.09,4.09,0,0,1,1.48-.41Zm1,.78a1.85,1.85,0,0,1-.32.16,2.71,2.71,0,0,1-.45.11L253,59a2.5,2.5,0,0,0-.77.23.76.76,0,0,0-.39.71.74.74,0,0,0,.24.62.91.91,0,0,0,.59.19,1.75,1.75,0,0,0,1-.32,1.34,1.34,0,0,0,.48-1.15Z"/>
          <path d="M260.62,55.43a2,2,0,0,1,.73.71v-3H263v8.63h-1.62v-.88a2.36,2.36,0,0,1-.81.83,2.29,2.29,0,0,1-1.14.26,2.37,2.37,0,0,1-1.88-.91,3.48,3.48,0,0,1-.76-2.32,4,4,0,0,1,.75-2.57,2.45,2.45,0,0,1,2-.94A2.06,2.06,0,0,1,260.62,55.43ZM261,60a2.33,2.33,0,0,0,.37-1.37,2.09,2.09,0,0,0-.59-1.68,1.27,1.27,0,0,0-.84-.3,1.17,1.17,0,0,0-1.08.55,3,3,0,0,0,0,2.79,1.18,1.18,0,0,0,1.06.53A1.23,1.23,0,0,0,261,60Z"/>
          <path d="M268.73,55.46a2.61,2.61,0,0,1,1.1.95,3.13,3.13,0,0,1,.51,1.32,8.1,8.1,0,0,1,.05,1.27h-4.65a1.53,1.53,0,0,0,.67,1.35,1.7,1.7,0,0,0,.92.24,1.3,1.3,0,0,0,1.27-.73h1.71a2.09,2.09,0,0,1-.62,1.15,3.1,3.1,0,0,1-2.4.93,3.48,3.48,0,0,1-2.25-.79,3.09,3.09,0,0,1-1-2.56,3.46,3.46,0,0,1,.88-2.54,3.08,3.08,0,0,1,2.28-.89A3.64,3.64,0,0,1,268.73,55.46Zm-2.5,1.44a1.73,1.73,0,0,0-.45,1h2.88a1.39,1.39,0,0,0-.45-1,1.46,1.46,0,0,0-1-.34A1.32,1.32,0,0,0,266.23,56.9Z"/>
          <path d="M277.58,55.33h1.69l1,4.6,1-4.6H283l-1.85,6.39h-1.72l-1-4.65-1,4.65h-1.73l-1.79-6.39h1.79l1,4.58Z"/>
          <path d="M285.62,54.57h-1.69V53h1.69Zm-1.69.76h1.69v6.39h-1.69Z"/>
          <path d="M286.58,56.58V55.39h.89V53.6h1.65v1.78h1v1.19h-1V60a.76.76,0,0,0,.1.49,1.1,1.1,0,0,0,.61.1h.33v1.25l-.79,0a2.12,2.12,0,0,1-1.62-.41,1.22,1.22,0,0,1-.28-.88V56.58Z"/>
          <path d="M295.83,55.36a1.89,1.89,0,0,1,.79.63,1.67,1.67,0,0,1,.32.74A9.09,9.09,0,0,1,297,58v3.75h-1.71V57.83a1.73,1.73,0,0,0-.17-.83.88.88,0,0,0-.86-.45,1.18,1.18,0,0,0-1,.44,2,2,0,0,0-.34,1.26v3.46h-1.67V53.11h1.67v3a2,2,0,0,1,.84-.78,2.36,2.36,0,0,1,1-.22A2.7,2.7,0,0,1,295.83,55.36Z"/>
        </g>
        <g style="isolation: isolate">
          <path d="M267.74,78.23h.54v4.21a4.11,4.11,0,0,1-.09.9,1.92,1.92,0,0,1-.34.75,1.7,1.7,0,0,1-.67.52,3.11,3.11,0,0,1-2,.06,1.92,1.92,0,0,1-.6-.33,1.41,1.41,0,0,1-.36-.44,1.09,1.09,0,0,1-.13-.45h.58a1.06,1.06,0,0,0,.2.43,1,1,0,0,0,.32.26,1.37,1.37,0,0,0,.41.13,2.92,2.92,0,0,0,.47,0,1.79,1.79,0,0,0,.88-.19,1.29,1.29,0,0,0,.5-.5,1.9,1.9,0,0,0,.22-.69,5.43,5.43,0,0,0,0-.79,1.67,1.67,0,0,1-.71.65,2.15,2.15,0,0,1-1,.22,2,2,0,0,1-.92-.2,1.9,1.9,0,0,1-.65-.54,2.32,2.32,0,0,1-.38-.79,3.45,3.45,0,0,1-.13-.94,3.81,3.81,0,0,1,.12-1,2.11,2.11,0,0,1,.37-.78,1.78,1.78,0,0,1,.65-.52,2.22,2.22,0,0,1,1-.19,1.77,1.77,0,0,1,.46.06,2.14,2.14,0,0,1,.45.18,1.75,1.75,0,0,1,.41.3,1.58,1.58,0,0,1,.3.41h0Zm0,2.35a2.86,2.86,0,0,0-.1-.79,1.89,1.89,0,0,0-.3-.63,1.43,1.43,0,0,0-.49-.42,1.46,1.46,0,0,0-.68-.15,1.61,1.61,0,0,0-.63.12,1.46,1.46,0,0,0-.5.36,1.67,1.67,0,0,0-.34.57,2.3,2.3,0,0,0-.12.78,3,3,0,0,0,.07.82,2,2,0,0,0,.29.67,1.44,1.44,0,0,0,.5.46,1.5,1.5,0,0,0,.73.17,1.37,1.37,0,0,0,.66-.16,1.54,1.54,0,0,0,.5-.42,2,2,0,0,0,.31-.62A2.6,2.6,0,0,0,267.74,80.58Z"/>
          <path d="M270.21,82.9h-.54V78.23h.54v.87h0a1.56,1.56,0,0,1,.58-.78,1.76,1.76,0,0,1,.94-.22v.58a1.57,1.57,0,0,0-.76.14,1.23,1.23,0,0,0-.47.41,1.65,1.65,0,0,0-.24.62,3.9,3.9,0,0,0-.07.74Z"/>
          <path d="M273,80.69a2.52,2.52,0,0,0,.1.72,1.72,1.72,0,0,0,.29.58,1.41,1.41,0,0,0,.49.4,1.63,1.63,0,0,0,1.59-.13,1.35,1.35,0,0,0,.5-.79h.6a2.92,2.92,0,0,1-.26.62,1.89,1.89,0,0,1-.4.5,1.76,1.76,0,0,1-.58.33,2.33,2.33,0,0,1-.77.12,2.25,2.25,0,0,1-1-.19,1.82,1.82,0,0,1-.67-.52,2.19,2.19,0,0,1-.39-.77,3.51,3.51,0,0,1-.13-1,3.07,3.07,0,0,1,.15-1,2.45,2.45,0,0,1,.42-.79,2,2,0,0,1,.67-.53,2,2,0,0,1,.9-.19,1.86,1.86,0,0,1,1.51.66,2.91,2.91,0,0,1,.54,1.92Zm3-.45a2.13,2.13,0,0,0-.09-.64,1.5,1.5,0,0,0-.28-.52,1.34,1.34,0,0,0-.46-.35,1.5,1.5,0,0,0-.64-.13,1.42,1.42,0,0,0-.63.13,1.45,1.45,0,0,0-.47.36,1.8,1.8,0,0,0-.31.52,2.44,2.44,0,0,0-.15.63Z"/>
          <path d="M278,80.69a2.52,2.52,0,0,0,.1.72,1.72,1.72,0,0,0,.29.58,1.41,1.41,0,0,0,.49.4,1.63,1.63,0,0,0,1.59-.13,1.35,1.35,0,0,0,.5-.79h.6a2.92,2.92,0,0,1-.26.62,1.89,1.89,0,0,1-.4.5,1.76,1.76,0,0,1-.58.33,2.33,2.33,0,0,1-.77.12,2.25,2.25,0,0,1-1-.19,1.82,1.82,0,0,1-.67-.52,2.19,2.19,0,0,1-.39-.77,3.51,3.51,0,0,1-.13-1,3.07,3.07,0,0,1,.15-1,2.45,2.45,0,0,1,.42-.79,2,2,0,0,1,.67-.53,2,2,0,0,1,.9-.19,1.86,1.86,0,0,1,1.51.66,2.91,2.91,0,0,1,.54,1.92Zm3-.45a2.13,2.13,0,0,0-.09-.64,1.5,1.5,0,0,0-.28-.52,1.34,1.34,0,0,0-.46-.35,1.5,1.5,0,0,0-.64-.13,1.42,1.42,0,0,0-.63.13,1.45,1.45,0,0,0-.47.36,1.8,1.8,0,0,0-.31.52,2.44,2.44,0,0,0-.15.63Z"/>
          <path d="M284.28,82.91,284,83a1.34,1.34,0,0,1-.36,0,.86.86,0,0,1-.62-.2,1,1,0,0,1-.21-.72V78.68h-.66v-.45h.66v-1.3h.54v1.3h.87v.45h-.87v3.2c0,.11,0,.21,0,.3a.49.49,0,0,0,.05.21.25.25,0,0,0,.14.12.76.76,0,0,0,.27,0l.22,0,.22,0Z"/>
          <path d="M285.2,77.22v-.8h.59v.8Zm0,5.68V78.23h.54V82.9Z"/>
          <path d="M287.69,82.9h-.54V78.23h.54v.65a3.44,3.44,0,0,1,.67-.56,1.55,1.55,0,0,1,.83-.22,2.13,2.13,0,0,1,.8.15,1.37,1.37,0,0,1,.62.52,1.15,1.15,0,0,1,.2.52,4.59,4.59,0,0,1,0,.55V82.9h-.54v-3a1.39,1.39,0,0,0-.28-.95,1.19,1.19,0,0,0-.93-.31,1.32,1.32,0,0,0-.46.08,1.44,1.44,0,0,0-.37.2,1.39,1.39,0,0,0-.28.29,1.31,1.31,0,0,0-.18.34,1.67,1.67,0,0,0-.1.43c0,.14,0,.29,0,.45Z"/>
          <path d="M295.75,78.23h.54v4.21a4.11,4.11,0,0,1-.09.9,1.92,1.92,0,0,1-.34.75,1.7,1.7,0,0,1-.67.52,3.11,3.11,0,0,1-2,.06,1.92,1.92,0,0,1-.6-.33,1.41,1.41,0,0,1-.36-.44,1.09,1.09,0,0,1-.13-.45h.58a1.06,1.06,0,0,0,.2.43,1,1,0,0,0,.32.26,1.37,1.37,0,0,0,.41.13,2.92,2.92,0,0,0,.47,0,1.79,1.79,0,0,0,.88-.19,1.29,1.29,0,0,0,.5-.5,1.9,1.9,0,0,0,.22-.69,5.43,5.43,0,0,0,0-.79,1.67,1.67,0,0,1-.71.65,2.15,2.15,0,0,1-1,.22,2,2,0,0,1-.92-.2,1.9,1.9,0,0,1-.65-.54,2.32,2.32,0,0,1-.38-.79,3.45,3.45,0,0,1-.13-.94,3.81,3.81,0,0,1,.12-1,2.11,2.11,0,0,1,.37-.78,1.78,1.78,0,0,1,.65-.52,2.22,2.22,0,0,1,1-.19,1.77,1.77,0,0,1,.46.06,2.14,2.14,0,0,1,.45.18,1.75,1.75,0,0,1,.41.3,1.58,1.58,0,0,1,.3.41h0Zm0,2.35a2.86,2.86,0,0,0-.1-.79,1.89,1.89,0,0,0-.3-.63,1.43,1.43,0,0,0-.49-.42,1.46,1.46,0,0,0-.68-.15,1.61,1.61,0,0,0-.63.12,1.46,1.46,0,0,0-.5.36,1.67,1.67,0,0,0-.34.57,2.3,2.3,0,0,0-.12.78,3,3,0,0,0,.07.82,2,2,0,0,0,.29.67,1.44,1.44,0,0,0,.5.46,1.5,1.5,0,0,0,.73.17,1.37,1.37,0,0,0,.66-.16,1.54,1.54,0,0,0,.5-.42,2,2,0,0,0,.31-.62A2.6,2.6,0,0,0,295.75,80.58Z"/>
          <path d="M298,81.44a1.37,1.37,0,0,0,.46.85,1.54,1.54,0,0,0,.94.25,1.63,1.63,0,0,0,.51-.07,1,1,0,0,0,.36-.19.82.82,0,0,0,.21-.27.75.75,0,0,0,.07-.32.6.6,0,0,0-.22-.51,1.66,1.66,0,0,0-.55-.26,7,7,0,0,0-.72-.16,3.47,3.47,0,0,1-.72-.2,1.44,1.44,0,0,1-.55-.39,1,1,0,0,1-.22-.71,1.21,1.21,0,0,1,.43-1,1.78,1.78,0,0,1,1.21-.37,2.06,2.06,0,0,1,1.23.34,1.54,1.54,0,0,1,.57,1.13h-.55a1,1,0,0,0-.41-.76,1.52,1.52,0,0,0-.85-.22,1.21,1.21,0,0,0-.78.22.71.71,0,0,0-.27.58.57.57,0,0,0,.22.48,1.81,1.81,0,0,0,.55.27q.33.1.72.18a3.62,3.62,0,0,1,.72.23,1.59,1.59,0,0,1,.55.4,1,1,0,0,1,.22.7,1.19,1.19,0,0,1-.14.59,1.26,1.26,0,0,1-.4.43,1.82,1.82,0,0,1-.6.26,3.14,3.14,0,0,1-.76.09,2.05,2.05,0,0,1-.73-.12,1.6,1.6,0,0,1-.54-.34,1.54,1.54,0,0,1-.35-.5,1.77,1.77,0,0,1-.14-.62Z"/>
          <path d="M301.68,78.68v-.45h.69V77.5a1.52,1.52,0,0,1,.23-.88.86.86,0,0,1,.76-.32h.23l.22,0v.5a1.39,1.39,0,0,0-.32,0,.59.59,0,0,0-.32.08.45.45,0,0,0-.17.2.91.91,0,0,0-.07.28c0,.11,0,.21,0,.32v.58h.9v.45h-.9V82.9h-.54V78.68Z"/>
          <path d="M305.22,82.9h-.54V78.23h.54v.87h0a1.56,1.56,0,0,1,.58-.78,1.76,1.76,0,0,1,.94-.22v.58a1.57,1.57,0,0,0-.76.14,1.23,1.23,0,0,0-.47.41,1.65,1.65,0,0,0-.24.62,3.9,3.9,0,0,0-.07.74Z"/>
          <path d="M309.5,83a2.41,2.41,0,0,1-.84-.16,1.87,1.87,0,0,1-.68-.46,2.21,2.21,0,0,1-.46-.76,3.06,3.06,0,0,1-.17-1.07,3.29,3.29,0,0,1,.13-1,2.27,2.27,0,0,1,.41-.78,1.93,1.93,0,0,1,.67-.53,2.17,2.17,0,0,1,.95-.19,2.2,2.2,0,0,1,1,.19,2,2,0,0,1,.67.52,2.16,2.16,0,0,1,.4.78,3.45,3.45,0,0,1,.13,1,3.13,3.13,0,0,1-.15,1,2.26,2.26,0,0,1-.44.77,1.92,1.92,0,0,1-.68.5A2.18,2.18,0,0,1,309.5,83Zm1.58-2.46a3.21,3.21,0,0,0-.09-.77,1.85,1.85,0,0,0-.28-.62,1.35,1.35,0,0,0-.49-.42,1.58,1.58,0,0,0-.73-.15,1.49,1.49,0,0,0-.72.17,1.41,1.41,0,0,0-.49.44,1.92,1.92,0,0,0-.28.63,3,3,0,0,0-.09.73,2.9,2.9,0,0,0,.1.8,1.83,1.83,0,0,0,.3.63,1.36,1.36,0,0,0,.49.41,1.56,1.56,0,0,0,.68.14,1.47,1.47,0,0,0,.72-.17,1.41,1.41,0,0,0,.49-.45,2,2,0,0,0,.28-.63A3,3,0,0,0,311.08,80.56Z"/>
          <path d="M313.12,82.9h-.54V78.23h.54v.7h0a1.42,1.42,0,0,1,.59-.62,1.73,1.73,0,0,1,.85-.21,1.82,1.82,0,0,1,.55.07,1.24,1.24,0,0,1,.38.19,1.14,1.14,0,0,1,.26.28,1.91,1.91,0,0,1,.18.35,1.57,1.57,0,0,1,.63-.68,1.79,1.79,0,0,1,.9-.22,1.57,1.57,0,0,1,.76.16,1.14,1.14,0,0,1,.44.41,1.59,1.59,0,0,1,.2.59,4.62,4.62,0,0,1,0,.68V82.9h-.54V79.67a1.32,1.32,0,0,0-.21-.79.92.92,0,0,0-.79-.29,1.3,1.3,0,0,0-1.05.53,1,1,0,0,0-.15.28,2.32,2.32,0,0,0-.09.33,2.77,2.77,0,0,0,0,.34c0,.11,0,.22,0,.32V82.9h-.54V79.67a1.32,1.32,0,0,0-.21-.79.92.92,0,0,0-.79-.29,1.32,1.32,0,0,0-.57.13,1.34,1.34,0,0,0-.48.4,1.06,1.06,0,0,0-.15.28,2.2,2.2,0,0,0-.09.33,2.6,2.6,0,0,0,0,.34c0,.11,0,.22,0,.32Z"/>
          <path d="M321.79,82.91l-.26.06a1.33,1.33,0,0,1-.36,0,.86.86,0,0,1-.62-.2,1,1,0,0,1-.21-.72V78.68h-.66v-.45h.66v-1.3h.54v1.3h.87v.45h-.87v3.2c0,.11,0,.21,0,.3a.49.49,0,0,0,.05.21.26.26,0,0,0,.14.12.76.76,0,0,0,.27,0l.22,0,.22,0Z"/>
          <path d="M322.65,82.9V76.42h.54v2.47a3.42,3.42,0,0,1,.67-.56,1.55,1.55,0,0,1,.83-.22,2.14,2.14,0,0,1,.8.15,1.37,1.37,0,0,1,.62.52,1.17,1.17,0,0,1,.2.52,4.8,4.8,0,0,1,0,.55V82.9h-.54v-3a1.39,1.39,0,0,0-.28-.95,1.18,1.18,0,0,0-.93-.31,1.32,1.32,0,0,0-.46.08,1.43,1.43,0,0,0-.37.2,1.39,1.39,0,0,0-.28.29,1.34,1.34,0,0,0-.18.34,1.71,1.71,0,0,0-.1.43c0,.14,0,.29,0,.45V82.9Z"/>
          <path d="M328,80.69a2.52,2.52,0,0,0,.1.72,1.72,1.72,0,0,0,.29.58,1.41,1.41,0,0,0,.49.4,1.63,1.63,0,0,0,1.59-.13,1.35,1.35,0,0,0,.5-.79h.6a2.92,2.92,0,0,1-.26.62,1.89,1.89,0,0,1-.4.5,1.76,1.76,0,0,1-.58.33,2.33,2.33,0,0,1-.77.12,2.25,2.25,0,0,1-1-.19,1.82,1.82,0,0,1-.67-.52,2.19,2.19,0,0,1-.39-.77,3.51,3.51,0,0,1-.13-1,3.07,3.07,0,0,1,.15-1,2.45,2.45,0,0,1,.42-.79,2,2,0,0,1,.67-.53,2,2,0,0,1,.9-.19,1.86,1.86,0,0,1,1.51.66,2.91,2.91,0,0,1,.54,1.92Zm3-.45a2.13,2.13,0,0,0-.09-.64,1.5,1.5,0,0,0-.28-.52,1.34,1.34,0,0,0-.46-.35,1.5,1.5,0,0,0-.64-.13,1.42,1.42,0,0,0-.63.13,1.45,1.45,0,0,0-.47.36,1.8,1.8,0,0,0-.31.52,2.44,2.44,0,0,0-.15.63Z"/>
          <path d="M332.71,77.22v-.8h.59v.8Zm0,5.68V78.23h.54V82.9Z"/>
          <path d="M335.2,82.9h-.54V78.23h.54v.65a3.42,3.42,0,0,1,.67-.56,1.55,1.55,0,0,1,.83-.22,2.14,2.14,0,0,1,.8.15,1.37,1.37,0,0,1,.62.52,1.17,1.17,0,0,1,.2.52,4.8,4.8,0,0,1,0,.55V82.9h-.54v-3a1.39,1.39,0,0,0-.28-.95,1.18,1.18,0,0,0-.93-.31,1.32,1.32,0,0,0-.46.08,1.43,1.43,0,0,0-.37.2,1.39,1.39,0,0,0-.28.29,1.34,1.34,0,0,0-.18.34,1.71,1.71,0,0,0-.1.43c0,.14,0,.29,0,.45Z"/>
          <path d="M341.3,82.91,341,83a1.34,1.34,0,0,1-.36,0,.86.86,0,0,1-.62-.2,1,1,0,0,1-.21-.72V78.68h-.66v-.45h.66v-1.3h.54v1.3h.87v.45h-.87v3.2c0,.11,0,.21,0,.3a.49.49,0,0,0,.05.21.25.25,0,0,0,.14.12.76.76,0,0,0,.27,0l.22,0,.22,0Z"/>
          <path d="M342.5,80.69a2.52,2.52,0,0,0,.1.72,1.72,1.72,0,0,0,.29.58,1.41,1.41,0,0,0,.49.4,1.63,1.63,0,0,0,1.59-.13,1.35,1.35,0,0,0,.5-.79h.6a2.92,2.92,0,0,1-.26.62,1.89,1.89,0,0,1-.4.5,1.76,1.76,0,0,1-.58.33,2.33,2.33,0,0,1-.77.12,2.25,2.25,0,0,1-1-.19,1.82,1.82,0,0,1-.67-.52,2.19,2.19,0,0,1-.39-.77,3.51,3.51,0,0,1-.13-1,3.07,3.07,0,0,1,.15-1,2.45,2.45,0,0,1,.42-.79,2,2,0,0,1,.67-.53,2,2,0,0,1,.9-.19,1.86,1.86,0,0,1,1.51.66,2.91,2.91,0,0,1,.54,1.92Zm3-.45a2.13,2.13,0,0,0-.09-.64,1.5,1.5,0,0,0-.28-.52,1.34,1.34,0,0,0-.46-.35,1.5,1.5,0,0,0-.64-.13,1.42,1.42,0,0,0-.63.13,1.45,1.45,0,0,0-.47.36,1.8,1.8,0,0,0-.31.52,2.44,2.44,0,0,0-.15.63Z"/>
          <path d="M347.73,82.9h-.54V78.23h.54v.87h0a1.56,1.56,0,0,1,.58-.78,1.76,1.76,0,0,1,.94-.22v.58a1.57,1.57,0,0,0-.76.14,1.23,1.23,0,0,0-.47.41,1.65,1.65,0,0,0-.24.62,3.9,3.9,0,0,0-.07.74Z"/>
          <path d="M350.43,82.9V82.1h.66v.79Z"/>
          <path d="M353.21,82.9h-.54V78.23h.54v.65a3.44,3.44,0,0,1,.67-.56,1.55,1.55,0,0,1,.83-.22,2.13,2.13,0,0,1,.8.15,1.37,1.37,0,0,1,.62.52,1.15,1.15,0,0,1,.2.52,4.59,4.59,0,0,1,0,.55V82.9h-.54v-3a1.39,1.39,0,0,0-.28-.95,1.19,1.19,0,0,0-.93-.31,1.32,1.32,0,0,0-.46.08,1.44,1.44,0,0,0-.37.2,1.39,1.39,0,0,0-.28.29,1.31,1.31,0,0,0-.18.34,1.67,1.67,0,0,0-.1.43c0,.14,0,.29,0,.45Z"/>
          <path d="M358,80.69a2.52,2.52,0,0,0,.1.72,1.72,1.72,0,0,0,.29.58,1.41,1.41,0,0,0,.49.4,1.63,1.63,0,0,0,1.59-.13,1.35,1.35,0,0,0,.5-.79h.6a2.92,2.92,0,0,1-.26.62,1.89,1.89,0,0,1-.4.5,1.76,1.76,0,0,1-.58.33,2.33,2.33,0,0,1-.77.12,2.25,2.25,0,0,1-1-.19,1.82,1.82,0,0,1-.67-.52,2.19,2.19,0,0,1-.39-.77,3.51,3.51,0,0,1-.13-1,3.07,3.07,0,0,1,.15-1,2.45,2.45,0,0,1,.42-.79,2,2,0,0,1,.67-.53,2,2,0,0,1,.9-.19,1.86,1.86,0,0,1,1.51.66,2.91,2.91,0,0,1,.54,1.92Zm3-.45a2.13,2.13,0,0,0-.09-.64,1.5,1.5,0,0,0-.28-.52,1.34,1.34,0,0,0-.46-.35,1.5,1.5,0,0,0-.64-.13,1.42,1.42,0,0,0-.63.13,1.45,1.45,0,0,0-.47.36,1.8,1.8,0,0,0-.31.52,2.44,2.44,0,0,0-.15.63Z"/>
          <path d="M364.31,82.91,364,83a1.34,1.34,0,0,1-.36,0,.86.86,0,0,1-.62-.2,1,1,0,0,1-.21-.72V78.68h-.66v-.45h.66v-1.3h.54v1.3h.87v.45h-.87v3.2c0,.11,0,.21,0,.3a.49.49,0,0,0,.05.21.25.25,0,0,0,.14.12.76.76,0,0,0,.27,0l.22,0,.22,0Z"/>
        </g>
      </g>
    </g>
  </g>
</svg>
