<svg xmlns="http://www.w3.org/2000/svg" viewBox="0 0 400 300">
  <defs>
    <style>
      .cls-1 {
        fill: #c1c1c1;
      }

      .cls-2 {
        font-size: 34px;
        font-family: Roboto-BoldItalic, Roboto;
        font-weight: 700;
        font-style: italic;
      }
    </style>
  </defs>
  <title>Asset 10</title>
  <g id="Layer_2" data-name="Layer 2">
    <g id="Layer_1-2" data-name="Layer 1">
      <g>
        <rect class="cls-1" width="400" height="300"/>
        <text class="cls-2" transform="translate(48.07 99.5) rotate(-3.57)">L</text>
        <text class="cls-2" transform="matrix(1, -0.06, 0.06, 1, 66.08, 98.37)">o</text>
        <text class="cls-2" transform="translate(84.85 97.2) rotate(-3.57)">r</text>
        <text class="cls-2" transform="matrix(1, -0.06, 0.06, 1, 96.73, 96.46)">e</text>
        <text class="cls-2" transform="translate(114.67 95.35) rotate(-3.57)">m</text>
        <text class="cls-2" transform="translate(143.35 93.56) rotate(-3.57)"> </text>
        <text class="cls-2" transform="matrix(1, -0.06, 0.06, 1, 151.72, 93.04)">i</text>
        <text class="cls-2" transform="translate(160.61 92.48) rotate(-3.57)">p</text>
        <text class="cls-2" transform="matrix(1, -0.06, 0.06, 1, 179.32, 91.32)">s</text>
        <text class="cls-2" transform="translate(196.38 90.25) rotate(-3.57)">u</text>
        <text class="cls-2" transform="translate(214.98 89.1) rotate(-3.57)">m</text>
        <text class="cls-2" transform="translate(243.66 87.31) rotate(-3.57)"> </text>
        <text class="cls-2" transform="translate(252.03 86.79) rotate(-3.57)">d</text>
        <text class="cls-2" transform="translate(270.73 85.62) rotate(-3.57)">o</text>
        <text class="cls-2" transform="matrix(1, -0.06, 0.06, 1, 289.49, 84.45)">l</text>
        <text class="cls-2" transform="translate(298.41 83.9) rotate(-3.57)">o</text>
        <text class="cls-2" transform="matrix(1, -0.06, 0.06, 1, 317.17, 82.73)">r</text>
        <text class="cls-2" transform="translate(329.35 81.97) rotate(-3.56)"> </text>
        <text class="cls-2" transform="translate(48.09 199.5) rotate(-3.57)">s</text>
        <text class="cls-2" transform="translate(65.17 198.43) rotate(-3.57)">i</text>
        <text class="cls-2" transform="matrix(1, -0.06, 0.06, 1, 74.05, 197.88)">t</text>
        <text class="cls-2" transform="matrix(1, -0.06, 0.06, 1, 85.35, 197.17)"> </text>
        <text class="cls-2" transform="translate(93.73 196.65) rotate(-3.57)">a</text>
        <text class="cls-2" transform="translate(111.53 195.54) rotate(-3.57)">m</text>
        <text class="cls-2" transform="translate(140.2 193.76) rotate(-3.57)">e</text>
        <text class="cls-2" transform="translate(158.16 192.64) rotate(-3.56)">t</text>
        <text class="cls-2" transform="matrix(1, -0.06, 0.06, 1, 169.44, 191.93)">,</text>
        <text class="cls-2" transform="matrix(1, -0.06, 0.06, 1, 177.65, 191.42)"> </text>
        <text class="cls-2" transform="matrix(1, -0.06, 0.06, 1, 186.04, 190.9)">c</text>
        <text class="cls-2" transform="translate(203.34 189.82) rotate(-3.56)">o</text>
        <text class="cls-2" transform="translate(222.14 188.65) rotate(-3.57)">n</text>
        <text class="cls-2" transform="translate(240.73 187.49) rotate(-3.57)">s</text>
        <text class="cls-2" transform="translate(257.82 186.43) rotate(-3.57)">e</text>
        <text class="cls-2" transform="matrix(1, -0.06, 0.06, 1, 275.79, 185.31)">c</text>
        <text class="cls-2" transform="translate(293.11 184.23) rotate(-3.57)">t</text>
        <text class="cls-2" transform="translate(304.4 183.52) rotate(-3.57)">e</text>
        <text class="cls-2" transform="translate(322.38 182.4) rotate(-3.57)">t</text>
        <text class="cls-2" transform="translate(333.66 181.7) rotate(-3.57)">u</text>
        <text class="cls-2" transform="matrix(1, -0.06, 0.06, 1, 352.25, 180.54)">r</text>
        <text class="cls-2" transform="translate(364.42 179.79) rotate(-3.56)"> </text>
        <text class="cls-2" transform="translate(48.08 249.5) rotate(-3.57)">a</text>
        <text class="cls-2" transform="translate(65.89 248.39) rotate(-3.57)">d</text>
        <text class="cls-2" transform="translate(84.61 247.22) rotate(-3.57)">i</text>
        <text class="cls-2" transform="matrix(1, -0.06, 0.06, 1, 93.52, 246.67)">p</text>
        <text class="cls-2" transform="translate(112.19 245.5) rotate(-3.57)">i</text>
        <text class="cls-2" transform="matrix(1, -0.06, 0.06, 1, 121.08, 244.95)">s</text>
        <text class="cls-2" transform="translate(138.18 243.88) rotate(-3.56)">c</text>
        <text class="cls-2" transform="translate(155.51 242.8) rotate(-3.57)">i</text>
        <text class="cls-2" transform="matrix(1, -0.06, 0.06, 1, 164.41, 242.25)">n</text>
        <text class="cls-2" transform="matrix(1, -0.06, 0.06, 1, 183.03, 241.09)">g</text>
        <text class="cls-2" transform="translate(201.97 239.91) rotate(-3.57)"> </text>
        <text class="cls-2" transform="matrix(1, -0.06, 0.06, 1, 210.36, 239.38)">e</text>
        <text class="cls-2" transform="translate(228.3 238.27) rotate(-3.57)">l</text>
        <text class="cls-2" transform="translate(237.22 237.71) rotate(-3.57)">i</text>
        <text class="cls-2" transform="translate(246.11 237.16) rotate(-3.57)">t</text>
        <text class="cls-2" transform="translate(257.4 236.45) rotate(-3.57)">,</text>
        <text class="cls-2" transform="translate(265.58 235.94) rotate(-3.57)"> </text>
        <text class="cls-2" transform="translate(273.96 235.42) rotate(-3.57)">s</text>
        <text class="cls-2" transform="translate(291.06 234.36) rotate(-3.57)">e</text>
        <text class="cls-2" transform="translate(309 233.24) rotate(-3.57)">d</text>
        <text class="cls-2" transform="translate(327.72 232.07) rotate(-3.57)"> </text>
        <text class="cls-2" transform="translate(48.09 149.5) rotate(-3.57)">s</text>
        <text class="cls-2" transform="translate(65.17 148.43) rotate(-3.57)">i</text>
        <text class="cls-2" transform="matrix(1, -0.06, 0.06, 1, 74.05, 147.88)">t</text>
        <text class="cls-2" transform="matrix(1, -0.06, 0.06, 1, 85.35, 147.17)"> </text>
        <text class="cls-2" transform="translate(93.73 146.65) rotate(-3.57)">a</text>
        <text class="cls-2" transform="translate(111.53 145.54) rotate(-3.57)">m</text>
        <text class="cls-2" transform="translate(140.2 143.76) rotate(-3.57)">e</text>
        <text class="cls-2" transform="translate(158.16 142.64) rotate(-3.56)">t</text>
        <text class="cls-2" transform="matrix(1, -0.06, 0.06, 1, 169.44, 141.93)">,</text>
        <text class="cls-2" transform="matrix(1, -0.06, 0.06, 1, 177.65, 141.42)"> </text>
        <text class="cls-2" transform="matrix(1, -0.06, 0.06, 1, 186.04, 140.9)">c</text>
        <text class="cls-2" transform="translate(203.34 139.82) rotate(-3.56)">o</text>
        <text class="cls-2" transform="translate(222.14 138.65) rotate(-3.57)">n</text>
        <text class="cls-2" transform="translate(240.73 137.49) rotate(-3.57)">s</text>
        <text class="cls-2" transform="translate(257.82 136.43) rotate(-3.57)">e</text>
        <text class="cls-2" transform="matrix(1, -0.06, 0.06, 1, 275.79, 135.31)">c</text>
        <text class="cls-2" transform="translate(293.11 134.23) rotate(-3.57)">t</text>
        <text class="cls-2" transform="translate(304.4 133.52) rotate(-3.57)">e</text>
        <text class="cls-2" transform="translate(322.38 132.4) rotate(-3.57)">t</text>
        <text class="cls-2" transform="translate(333.66 131.7) rotate(-3.57)">u</text>
        <text class="cls-2" transform="matrix(1, -0.06, 0.06, 1, 352.25, 130.54)">r</text>
        <text class="cls-2" transform="translate(364.42 129.79) rotate(-3.56)"> </text>
      </g>
    </g>
  </g>
</svg>
