<svg xmlns="http://www.w3.org/2000/svg" viewBox="0 0 400 300">
  <defs>
    <style>
      .cls-1 {
        fill: #c1c1c1;
      }

      .cls-2 {
        fill: #777;
      }
    </style>
  </defs>
  <title>Asset 5</title>
  <g id="Layer_2" data-name="Layer 2">
    <g id="Layer_1-2" data-name="Layer 1">
      <g>
        <rect class="cls-1" width="400" height="300"/>
        <g>
          <polygon class="cls-2" points="25.5 263.47 28.19 268.93 34.22 269.81 29.86 274.06 30.89 280.05 25.5 277.22 20.11 280.05 21.14 274.06 16.78 269.81 22.81 268.93 25.5 263.47"/>
          <polygon class="cls-2" points="60.4 263.47 63.09 268.93 69.12 269.81 64.76 274.06 65.79 280.05 60.4 277.22 55.01 280.05 56.04 274.06 51.68 269.81 57.71 268.93 60.4 263.47"/>
          <polygon class="cls-2" points="95.3 263.47 97.99 268.93 104.02 269.81 99.66 274.06 100.69 280.05 95.3 277.22 89.91 280.05 90.94 274.06 86.58 269.81 92.61 268.93 95.3 263.47"/>
          <polygon class="cls-2" points="130.2 263.47 132.89 268.93 138.92 269.81 134.56 274.06 135.59 280.05 130.2 277.22 124.81 280.05 125.84 274.06 121.48 269.81 127.51 268.93 130.2 263.47"/>
          <polygon class="cls-2" points="165.1 263.47 167.79 268.93 173.82 269.81 169.46 274.06 170.49 280.05 165.1 277.22 159.71 280.05 160.74 274.06 156.38 269.81 162.41 268.93 165.1 263.47"/>
          <polygon class="cls-2" points="200 263.47 202.69 268.93 208.72 269.81 204.36 274.06 205.39 280.05 200 277.22 194.61 280.05 195.64 274.06 191.28 269.81 197.31 268.93 200 263.47"/>
          <polygon class="cls-2" points="234.9 263.47 237.59 268.93 243.62 269.81 239.26 274.06 240.29 280.05 234.9 277.22 229.51 280.05 230.54 274.06 226.18 269.81 232.21 268.93 234.9 263.47"/>
          <polygon class="cls-2" points="269.8 263.47 272.49 268.93 278.52 269.81 274.16 274.06 275.19 280.05 269.8 277.22 264.41 280.05 265.44 274.06 261.08 269.81 267.11 268.93 269.8 263.47"/>
          <polygon class="cls-2" points="304.7 263.47 307.39 268.93 313.42 269.81 309.06 274.06 310.09 280.05 304.7 277.22 299.31 280.05 300.34 274.06 295.98 269.81 302.01 268.93 304.7 263.47"/>
          <polygon class="cls-2" points="339.6 263.47 342.29 268.93 348.32 269.81 343.96 274.06 344.99 280.05 339.6 277.22 334.21 280.05 335.24 274.06 330.88 269.81 336.91 268.93 339.6 263.47"/>
          <polygon class="cls-2" points="374.5 263.47 377.19 268.93 383.22 269.81 378.86 274.06 379.89 280.05 374.5 277.22 369.11 280.05 370.14 274.06 365.78 269.81 371.81 268.93 374.5 263.47"/>
        </g>
        <g>
          <polygon class="cls-2" points="25.5 20.47 28.19 25.93 34.22 26.81 29.86 31.05 30.89 37.05 25.5 34.22 20.11 37.05 21.14 31.05 16.78 26.81 22.81 25.93 25.5 20.47"/>
          <polygon class="cls-2" points="60.4 20.47 63.09 25.93 69.12 26.81 64.76 31.05 65.79 37.05 60.4 34.22 55.01 37.05 56.04 31.05 51.68 26.81 57.71 25.93 60.4 20.47"/>
          <polygon class="cls-2" points="95.3 20.47 97.99 25.93 104.02 26.81 99.66 31.05 100.69 37.05 95.3 34.22 89.91 37.05 90.94 31.05 86.58 26.81 92.61 25.93 95.3 20.47"/>
          <polygon class="cls-2" points="130.2 20.47 132.89 25.93 138.92 26.81 134.56 31.05 135.59 37.05 130.2 34.22 124.81 37.05 125.84 31.05 121.48 26.81 127.51 25.93 130.2 20.47"/>
          <polygon class="cls-2" points="165.1 20.47 167.79 25.93 173.82 26.81 169.46 31.05 170.49 37.05 165.1 34.22 159.71 37.05 160.74 31.05 156.38 26.81 162.41 25.93 165.1 20.47"/>
          <polygon class="cls-2" points="200 20.47 202.69 25.93 208.72 26.81 204.36 31.05 205.39 37.05 200 34.22 194.61 37.05 195.64 31.05 191.28 26.81 197.31 25.93 200 20.47"/>
          <polygon class="cls-2" points="234.9 20.47 237.59 25.93 243.62 26.81 239.26 31.05 240.29 37.05 234.9 34.22 229.51 37.05 230.54 31.05 226.18 26.81 232.21 25.93 234.9 20.47"/>
          <polygon class="cls-2" points="269.8 20.47 272.49 25.93 278.52 26.81 274.16 31.05 275.19 37.05 269.8 34.22 264.41 37.05 265.44 31.05 261.08 26.81 267.11 25.93 269.8 20.47"/>
          <polygon class="cls-2" points="304.7 20.47 307.39 25.93 313.42 26.81 309.06 31.05 310.09 37.05 304.7 34.22 299.31 37.05 300.34 31.05 295.98 26.81 302.01 25.93 304.7 20.47"/>
          <polygon class="cls-2" points="339.6 20.47 342.29 25.93 348.32 26.81 343.96 31.05 344.99 37.05 339.6 34.22 334.21 37.05 335.24 31.05 330.88 26.81 336.91 25.93 339.6 20.47"/>
          <polygon class="cls-2" points="374.5 20.47 377.19 25.93 383.22 26.81 378.86 31.05 379.89 37.05 374.5 34.22 369.11 37.05 370.14 31.05 365.78 26.81 371.81 25.93 374.5 20.47"/>
        </g>
      </g>
    </g>
  </g>
</svg>
