<svg xmlns="http://www.w3.org/2000/svg" viewBox="0 0 400 300">
  <defs>
    <style>
      .cls-1 {
        fill: #c1c1c1;
      }

      .cls-2 {
        fill: #777;
      }
    </style>
  </defs>
  <title>Asset 6</title>
  <g id="Layer_2" data-name="Layer 2">
    <g id="Layer_1-2" data-name="Layer 1">
      <g>
        <rect class="cls-1" width="400" height="300"/>
        <g>
          <path class="cls-2" d="M321.51,191.67H400V175H326A127.38,127.38,0,0,1,321.51,191.67Z"/>
          <path class="cls-2" d="M269,258.33H400V241.67H290A128.68,128.68,0,0,1,269,258.33Z"/>
          <path class="cls-2" d="M304.28,225H400V208.33H314.46A127.33,127.33,0,0,1,304.28,225Z"/>
          <path class="cls-2" d="M328.38,150.19c0,2.73-.1,5.45-.27,8.14H400V141.67H328.09C328.27,144.48,328.38,147.32,328.38,150.19Z"/>
          <path class="cls-2" d="M166,8.33V0H101.4l.74,1.49,6.4.93-4.63,4.52L105,13.32l-5.73-3-5.73,3,1.1-6.38L90,2.42l6.41-.93L97.14,0H19.4l.74,1.49,6.4.93L21.91,6.94,23,13.32l-5.73-3-5.73,3,1.1-6.38L8,2.42l6.41-.93L15.14,0H0V300H12.28l.36-2.06L8,293.42l6.41-.93,2.86-5.81,2.87,5.81,6.4.93-4.63,4.52.35,2.06h72l.36-2.06L90,293.42l6.41-.93,2.86-5.81,2.87,5.81,6.4.93-4.63,4.52.35,2.06H166v-8.33H400V275H229.52a128.19,128.19,0,1,1-1.68-250H400V8.33Zm-144.09,248L23,262.75l-5.73-3-5.73,3,1.1-6.38L8,251.85l6.41-.93,2.86-5.81,2.87,5.81,6.4.93Zm0-41.58L23,221.17l-5.73-3-5.73,3,1.1-6.38L8,210.28l6.41-.93,2.86-5.81,2.87,5.81,6.4.93Zm0-41.57L23,179.6l-5.73-3-5.73,3,1.1-6.38L8,168.7l6.41-.93,2.86-5.8,2.87,5.8,6.4.93Zm0-41.57L23,138l-5.73-3-5.73,3,1.1-6.38L8,127.13l6.41-.93,2.86-5.8,2.87,5.8,6.4.93Zm0-41.57L23,96.46l-5.73-3-5.73,3,1.1-6.38L8,85.56l6.41-.93,2.86-5.8,2.87,5.8,6.4.93Zm0-41.57L23,54.89l-5.73-3-5.73,3,1.1-6.38L8,44l6.41-.93,2.86-5.81,2.87,5.81,6.4.93Zm115.5,222.41,2.86-5.81,2.87,5.81,6.4.93-4.63,4.52,1.09,6.38-5.73-3-5.73,3,1.1-6.38L131,271.85Zm-41-20,2.86-5.81,2.87,5.81,6.4.93-4.63,4.52,1.09,6.38-5.73-3-5.73,3,1.1-6.38L90,251.85ZM64,282.75l-5.73-3-5.73,3,1.1-6.38L49,271.85l6.41-.93,2.86-5.81,2.87,5.81,6.4.93-4.63,4.52Zm-1.09-48L64,241.17l-5.73-3-5.73,3,1.1-6.38L49,230.28l6.41-.93,2.86-5.81,2.87,5.81,6.4.93Zm0-41.57L64,199.6l-5.73-3-5.73,3,1.1-6.38L49,188.7l6.41-.93,2.86-5.8,2.87,5.8,6.4.93Zm0-41.57L64,158l-5.73-3-5.73,3,1.1-6.38L49,147.13l6.41-.93,2.86-5.8,2.87,5.8,6.4.93Zm0-41.57L64,116.46l-5.73-3-5.73,3,1.1-6.38L49,105.56l6.41-.93,2.86-5.8,2.87,5.8,6.4.93Zm0-41.57L64,74.89l-5.73-3-5.73,3,1.1-6.38L49,64l6.41-.93,2.86-5.81,2.87,5.81,6.4.93Zm0-41.57L64,33.32l-5.73-3-5.73,3,1.1-6.38L49,22.42l6.41-.93,2.86-5.81,2.87,5.81,6.4.93Zm42.09,28-5.73-3-5.73,3,1.1-6.38L90,44l6.41-.93,2.86-5.81,2.87,5.81,6.4.93-4.63,4.52Zm41-21.57-5.73-3-5.73,3,1.1-6.38L131,22.42l6.41-.93,2.86-5.81,2.87,5.81,6.4.93-4.63,4.52Z"/>
          <path class="cls-2" d="M289.59,58.33H400V41.67H268.43A128.84,128.84,0,0,1,289.59,58.33Z"/>
          <path class="cls-2" d="M325.89,125H400V108.33H321.38A127.1,127.1,0,0,1,325.89,125Z"/>
          <path class="cls-2" d="M314.27,91.67H400V75H304A129,129,0,0,1,314.27,91.67Z"/>
        </g>
      </g>
    </g>
  </g>
</svg>
