<svg xmlns="http://www.w3.org/2000/svg" viewBox="0 0 400 300">
  <defs>
    <style>
      .cls-1 {
        fill: #c1c1c1;
      }

      .cls-2 {
        font-size: 48px;
        font-family: Roboto-BoldItalic, Roboto;
        font-weight: 700;
        font-style: italic;
      }
    </style>
  </defs>
  <title>Asset 9</title>
  <g id="Layer_2" data-name="Layer 2">
    <g id="Layer_1-2" data-name="Layer 1">
      <g>
        <rect class="cls-1" width="400" height="300"/>
        <text class="cls-2" transform="matrix(1, -0.06, 0.06, 1, 48.08, 99.5)">L</text>
        <text class="cls-2" transform="matrix(1, -0.06, 0.06, 1, 73.49, 97.91)">o</text>
        <text class="cls-2" transform="translate(99.99 96.26) rotate(-3.57)">r</text>
        <text class="cls-2" transform="translate(116.74 95.22) rotate(-3.57)">e</text>
        <text class="cls-2" transform="translate(142.1 93.64) rotate(-3.57)">m</text>
        <text class="cls-2" transform="translate(182.57 91.12) rotate(-3.57)"> </text>
        <text class="cls-2" transform="matrix(1, -0.06, 0.06, 1, 194.38, 90.38)">i</text>
        <text class="cls-2" transform="matrix(1, -0.06, 0.06, 1, 206.94, 89.6)">p</text>
        <text class="cls-2" transform="translate(233.35 87.95) rotate(-3.57)">s</text>
        <text class="cls-2" transform="matrix(1, -0.06, 0.06, 1, 257.47, 86.45)">u</text>
        <text class="cls-2" transform="translate(283.71 84.81) rotate(-3.57)">m</text>
        <text class="cls-2" transform="matrix(1, -0.06, 0.06, 1, 324.17, 82.29)"> </text>
        <text class="cls-2" transform="matrix(1, -0.06, 0.06, 1, 48.08, 199.49)">d</text>
        <text class="cls-2" transform="translate(74.49 197.85) rotate(-3.57)">o</text>
        <text class="cls-2" transform="translate(100.99 196.2) rotate(-3.56)">l</text>
        <text class="cls-2" transform="translate(113.56 195.42) rotate(-3.57)">o</text>
        <text class="cls-2" transform="translate(140.06 193.76) rotate(-3.57)">r</text>
        <text class="cls-2" transform="translate(157.25 192.69) rotate(-3.57)"> </text>
        <text class="cls-2" transform="translate(169.08 191.96) rotate(-3.57)">s</text>
        <text class="cls-2" transform="translate(193.2 190.45) rotate(-3.57)">i</text>
        <text class="cls-2" transform="translate(205.77 189.67) rotate(-3.57)">t</text>
        <text class="cls-2" transform="translate(221.69 188.68) rotate(-3.57)"> </text>
        <text class="cls-2" transform="translate(233.5 187.94) rotate(-3.57)">a</text>
        <text class="cls-2" transform="translate(258.66 186.38) rotate(-3.57)">m</text>
        <text class="cls-2" transform="matrix(1, -0.06, 0.06, 1, 299.12, 183.85)">e</text>
        <text class="cls-2" transform="translate(324.49 182.27) rotate(-3.57)">t</text>
        <text class="cls-2" transform="matrix(1, -0.06, 0.06, 1, 340.42, 181.28)">,</text>
        <text class="cls-2" transform="translate(352 180.56) rotate(-3.57)"> </text>
        <text class="cls-2" transform="translate(48.08 249.5) rotate(-3.56)">c</text>
        <text class="cls-2" transform="translate(72.55 247.97) rotate(-3.57)">o</text>
        <text class="cls-2" transform="translate(99.05 246.32) rotate(-3.57)">n</text>
        <text class="cls-2" transform="matrix(1, -0.06, 0.06, 1, 125.33, 244.68)">s</text>
        <text class="cls-2" transform="matrix(1, -0.06, 0.06, 1, 149.45, 243.18)">e</text>
        <text class="cls-2" transform="matrix(1, -0.06, 0.06, 1, 174.81, 241.6)">c</text>
        <text class="cls-2" transform="translate(199.27 240.08) rotate(-3.57)">t</text>
        <text class="cls-2" transform="translate(215.2 239.08) rotate(-3.57)">e</text>
        <text class="cls-2" transform="matrix(1, -0.06, 0.06, 1, 240.56, 237.5)">t</text>
        <text class="cls-2" transform="matrix(1, -0.06, 0.06, 1, 256.51, 236.51)">u</text>
        <text class="cls-2" transform="translate(282.75 234.87) rotate(-3.57)">r</text>
        <text class="cls-2" transform="translate(299.94 233.8) rotate(-3.57)"> </text>
        <text class="cls-2" transform="matrix(1, -0.06, 0.06, 1, 48.08, 149.49)">d</text>
        <text class="cls-2" transform="translate(74.49 147.85) rotate(-3.57)">o</text>
        <text class="cls-2" transform="translate(100.99 146.2) rotate(-3.56)">l</text>
        <text class="cls-2" transform="translate(113.56 145.42) rotate(-3.57)">o</text>
        <text class="cls-2" transform="translate(140.06 143.76) rotate(-3.57)">r</text>
        <text class="cls-2" transform="translate(157.25 142.69) rotate(-3.57)"> </text>
        <text class="cls-2" transform="translate(169.08 141.96) rotate(-3.57)">s</text>
        <text class="cls-2" transform="translate(193.2 140.45) rotate(-3.57)">i</text>
        <text class="cls-2" transform="translate(205.77 139.67) rotate(-3.57)">t</text>
        <text class="cls-2" transform="translate(221.69 138.68) rotate(-3.57)"> </text>
        <text class="cls-2" transform="translate(233.5 137.94) rotate(-3.57)">a</text>
        <text class="cls-2" transform="translate(258.66 136.38) rotate(-3.57)">m</text>
        <text class="cls-2" transform="matrix(1, -0.06, 0.06, 1, 299.12, 133.85)">e</text>
        <text class="cls-2" transform="translate(324.49 132.27) rotate(-3.57)">t</text>
        <text class="cls-2" transform="matrix(1, -0.06, 0.06, 1, 340.42, 131.28)">,</text>
        <text class="cls-2" transform="translate(352 130.56) rotate(-3.57)"> </text>
      </g>
    </g>
  </g>
</svg>
