<svg xmlns="http://www.w3.org/2000/svg" viewBox="0 0 400 300">
  <defs>
    <style>
      .cls-1 {
        fill: #c1c1c1;
      }

      .cls-2 {
        font-size: 24px;
        font-family: Roboto-BoldItalic, Roboto;
        font-weight: 700;
        font-style: italic;
      }
    </style>
  </defs>
  <title>Asset 11</title>
  <g id="Layer_2" data-name="Layer 2">
    <g id="Layer_1-2" data-name="Layer 1">
      <g>
        <rect class="cls-1" width="400" height="300"/>
        <text class="cls-2" transform="translate(41.58 65.5)">L<tspan x="12.72" y="0">o</tspan><tspan x="26.01" y="0">r</tspan><tspan x="34.4" y="0">e</tspan><tspan x="47.12" y="0">m</tspan><tspan x="67.38" y="0"> </tspan><tspan x="73.3" y="0">i</tspan><tspan x="79.59" y="0">p</tspan><tspan x="92.8" y="0">s</tspan><tspan x="104.91" y="0">u</tspan><tspan x="118.06" y="0">m</tspan><tspan x="138.34" y="0"> </tspan><tspan x="144.25" y="0">d</tspan><tspan x="157.48" y="0">o</tspan><tspan x="170.77" y="0">l</tspan><tspan x="177.07" y="0">o</tspan><tspan x="190.34" y="0">r</tspan><tspan x="198.94" y="0"> </tspan><tspan x="204.88" y="0">s</tspan><tspan x="216.97" y="0">i</tspan><tspan x="223.24" y="0">t</tspan><tspan x="231.25" y="0"> </tspan><tspan x="237.17" y="0">a</tspan><tspan x="249.74" y="0">m</tspan><tspan x="270.01" y="0">e</tspan><tspan x="282.72" y="0">t</tspan><tspan x="290.72" y="0">,</tspan><tspan x="296.52" y="0"> </tspan></text>
        <text class="cls-2" transform="translate(41.57 129.5)">c<tspan x="12.26" y="0">o</tspan><tspan x="25.56" y="0">n</tspan><tspan x="38.71" y="0">s</tspan><tspan x="50.81" y="0">e</tspan><tspan x="63.51" y="0">c</tspan><tspan x="75.75" y="0">t</tspan><tspan x="83.74" y="0">e</tspan><tspan x="96.46" y="0">t</tspan><tspan x="104.45" y="0">u</tspan><tspan x="117.58" y="0">r</tspan><tspan x="126.21" y="0"> </tspan><tspan x="132.13" y="0">a</tspan><tspan x="144.71" y="0">d</tspan><tspan x="157.96" y="0">i</tspan><tspan x="164.25" y="0">p</tspan><tspan x="177.46" y="0">i</tspan><tspan x="183.78" y="0">s</tspan><tspan x="195.84" y="0">c</tspan><tspan x="208.1" y="0">i</tspan><tspan x="214.41" y="0">n</tspan><tspan x="227.57" y="0">g</tspan><tspan x="240.98" y="0"> </tspan><tspan x="246.9" y="0">e</tspan><tspan x="259.61" y="0">l</tspan><tspan x="265.9" y="0">i</tspan><tspan x="272.18" y="0">t</tspan><tspan x="280.17" y="0">,</tspan><tspan x="285.98" y="0"> </tspan></text>
        <text class="cls-2" transform="translate(41.58 161.5)">s<tspan x="12.09" y="0">e</tspan><tspan x="24.77" y="0">d</tspan><tspan x="38.02" y="0"> </tspan><tspan x="43.94" y="0">d</tspan><tspan x="57.18" y="0">o</tspan><tspan x="70.45" y="0"> </tspan><tspan x="76.39" y="0">e</tspan><tspan x="89.08" y="0">i</tspan><tspan x="95.38" y="0">u</tspan><tspan x="108.52" y="0">s</tspan><tspan x="120.6" y="0">m</tspan><tspan x="140.89" y="0">o</tspan><tspan x="154.15" y="0">d</tspan><tspan x="167.38" y="0"> </tspan><tspan x="173.32" y="0">t</tspan><tspan x="181.31" y="0">e</tspan><tspan x="194.01" y="0">m</tspan><tspan x="214.28" y="0">p</tspan><tspan x="227.51" y="0">o</tspan><tspan x="240.79" y="0">r</tspan><tspan x="249.39" y="0"> </tspan></text>
        <text class="cls-2" transform="translate(41.57 97.5)">c<tspan x="12.26" y="0">o</tspan><tspan x="25.56" y="0">n</tspan><tspan x="38.71" y="0">s</tspan><tspan x="50.81" y="0">e</tspan><tspan x="63.51" y="0">c</tspan><tspan x="75.75" y="0">t</tspan><tspan x="83.74" y="0">e</tspan><tspan x="96.46" y="0">t</tspan><tspan x="104.45" y="0">u</tspan><tspan x="117.58" y="0">r</tspan><tspan x="126.21" y="0"> </tspan><tspan x="132.13" y="0">a</tspan><tspan x="144.71" y="0">d</tspan><tspan x="157.96" y="0">i</tspan><tspan x="164.25" y="0">p</tspan><tspan x="177.46" y="0">i</tspan><tspan x="183.78" y="0">s</tspan><tspan x="195.84" y="0">c</tspan><tspan x="208.1" y="0">i</tspan><tspan x="214.41" y="0">n</tspan><tspan x="227.57" y="0">g</tspan><tspan x="240.98" y="0"> </tspan><tspan x="246.9" y="0">e</tspan><tspan x="259.61" y="0">l</tspan><tspan x="265.9" y="0">i</tspan><tspan x="272.18" y="0">t</tspan><tspan x="280.17" y="0">,</tspan><tspan x="285.98" y="0"> </tspan></text>
        <text class="cls-2" transform="translate(41.54 193.5)">m<tspan x="20.3" y="0">a</tspan><tspan x="32.89" y="0">g</tspan><tspan x="46.29" y="0">n</tspan><tspan x="59.46" y="0">a</tspan><tspan x="72.05" y="0"> </tspan><tspan x="78" y="0">a</tspan><tspan x="90.57" y="0">l</tspan><tspan x="96.89" y="0">i</tspan><tspan x="103.17" y="0">q</tspan><tspan x="116.46" y="0">u</tspan><tspan x="129.59" y="0">a</tspan><tspan x="142.19" y="0">.</tspan><tspan x="149.07" y="0"> </tspan><tspan x="155" y="0">L</tspan><tspan x="167.73" y="0">o</tspan><tspan x="181.01" y="0">r</tspan><tspan x="189.41" y="0">e</tspan><tspan x="202.11" y="0">m</tspan><tspan x="222.39" y="0"> </tspan><tspan x="228.29" y="0">i</tspan><tspan x="234.58" y="0">p</tspan><tspan x="247.82" y="0">s</tspan><tspan x="259.9" y="0">u</tspan><tspan x="273.05" y="0">m</tspan><tspan x="293.34" y="0"> </tspan></text>
        <text class="cls-2" transform="translate(41.55 225.5)">d<tspan x="13.24" y="0">o</tspan><tspan x="26.53" y="0">l</tspan><tspan x="32.83" y="0">o</tspan><tspan x="46.11" y="0">r</tspan><tspan x="54.7" y="0"> </tspan><tspan x="60.64" y="0">s</tspan><tspan x="72.72" y="0">i</tspan><tspan x="79.01" y="0">t</tspan><tspan x="86.99" y="0"> </tspan><tspan x="92.91" y="0">a</tspan><tspan x="105.5" y="0">m</tspan><tspan x="125.78" y="0">e</tspan><tspan x="138.5" y="0">t</tspan><tspan x="146.47" y="0">,</tspan><tspan x="152.29" y="0"> </tspan><tspan x="158.2" y="0">c</tspan><tspan x="170.47" y="0">o</tspan><tspan x="183.75" y="0">n</tspan><tspan x="196.92" y="0">s</tspan><tspan x="208.99" y="0">e</tspan><tspan x="221.7" y="0">c</tspan><tspan x="233.95" y="0">t</tspan><tspan x="241.93" y="0">e</tspan><tspan x="254.64" y="0">t</tspan><tspan x="262.62" y="0">u</tspan><tspan x="275.78" y="0">r</tspan><tspan x="284.39" y="0"> </tspan></text>
        <text class="cls-2" transform="translate(41.54 257.5)">a<tspan x="12.61" y="0">d</tspan><tspan x="25.86" y="0">i</tspan><tspan x="32.15" y="0">p</tspan><tspan x="45.37" y="0">i</tspan><tspan x="51.68" y="0">s</tspan><tspan x="63.75" y="0">c</tspan><tspan x="76.01" y="0">i</tspan><tspan x="82.31" y="0">n</tspan><tspan x="95.46" y="0">g</tspan><tspan x="108.88" y="0"> </tspan><tspan x="114.79" y="0">e</tspan><tspan x="127.49" y="0">l</tspan><tspan x="133.79" y="0">i</tspan><tspan x="140.09" y="0">t</tspan><tspan x="148.07" y="0">,</tspan><tspan x="153.88" y="0"> </tspan><tspan x="159.79" y="0">s</tspan><tspan x="171.88" y="0">e</tspan><tspan x="184.59" y="0">d</tspan><tspan x="197.81" y="0"> </tspan><tspan x="203.73" y="0">d</tspan><tspan x="216.97" y="0">o</tspan><tspan x="230.26" y="0"> </tspan><tspan x="236.18" y="0">e</tspan><tspan x="248.88" y="0">i</tspan><tspan x="255.17" y="0">s</tspan><tspan x="267.26" y="0">d</tspan><tspan x="280.48" y="0">m</tspan><tspan x="300.78" y="0">o</tspan></text>
      </g>
    </g>
  </g>
</svg>
