<svg xmlns="http://www.w3.org/2000/svg" viewBox="0 0 72 72">
  <defs>
    <style>
      .cls-1 {
        fill: #d1d1d1;
      }

      .cls-2 {
        fill: #333;
      }
    </style>
  </defs>
  <title>alegreya_thumb</title>
  <g id="Layer_2" data-name="Layer 2">
    <g id="Layer_1-2" data-name="Layer 1">
      <rect class="cls-1" width="72" height="72"/>
      <g>
        <path class="cls-2" d="M28.84,43.78H25.1l-.43-2-.46-1.44-3.42-.07-3,.07-.46,1.27-.46,2.18H13.22l5.91-15.46H23.5Zm-5.42-6-2.06-6.43h-.24l-2.39,6.43,2.33,0Z"/>
        <path class="cls-2" d="M43.25,37.05a3.29,3.29,0,0,1,.86,2.36q0,4.49-7.95,4.49-2.33,0-4.77-.12l.19-4.61-.19-10.85,6.21,0a7.47,7.47,0,0,1,4.18,1,3.24,3.24,0,0,1,1.49,2.87,3.58,3.58,0,0,1-.69,2.18,4.21,4.21,0,0,1-2,1.42A5,5,0,0,1,43.25,37.05ZM39.43,41a1.93,1.93,0,0,0,.94-1.73q0-1.7-2.49-2.11l-3,0,0,1.7.08,2.59a18.49,18.49,0,0,0,1.87.1A4.88,4.88,0,0,0,39.43,41Zm-.64-9.88a4.94,4.94,0,0,0-2.47-.44H35l-.08,4.2,2.55.07A2.9,2.9,0,0,0,39,34.14a2.2,2.2,0,0,0,.5-1.54A1.63,1.63,0,0,0,38.79,31.1Z"/>
        <path class="cls-2" d="M58.67,29.07,58,31.78l-.3.12a7.3,7.3,0,0,0-1.79-.79,7,7,0,0,0-2-.29q-4.31,0-4.31,5a6.26,6.26,0,0,0,1.13,4.07A4,4,0,0,0,54,41.26a8.74,8.74,0,0,0,4-1l.32.17-.3,2.76a11.38,11.38,0,0,1-4.34.84,8.14,8.14,0,0,1-6-2,7.76,7.76,0,0,1-2-5.78,7.9,7.9,0,0,1,2.18-6,8.51,8.51,0,0,1,6.17-2.11A10.84,10.84,0,0,1,58.67,29.07Z"/>
      </g>
    </g>
  </g>
</svg>
