<svg xmlns="http://www.w3.org/2000/svg" viewBox="0 0 72 72">
  <defs>
    <style>
      .cls-1 {
        fill: #d1d1d1;
      }

      .cls-2 {
        fill: #333;
      }
    </style>
  </defs>
  <title>pacifico_thumb</title>
  <g id="Layer_2" data-name="Layer 2">
    <g id="Layer_1-2" data-name="Layer 1">
      <rect class="cls-1" width="72" height="72"/>
      <g>
        <path class="cls-2" d="M14.71,42.58a4.43,4.43,0,0,1-1.78-1.77,5.52,5.52,0,0,1-.65-2.75A10.1,10.1,0,0,1,13.6,33a9.73,9.73,0,0,1,3.91-3.74,12.75,12.75,0,0,1,6.2-1.41,17.29,17.29,0,0,1,2,.13,12.23,12.23,0,0,1,1.94.38.68.68,0,0,1,.57.72,1.26,1.26,0,0,1-.4.88,1.24,1.24,0,0,1-.93.41l-.24,0q-1.06-.22-1.81-.31a12.26,12.26,0,0,0-1.59-.1A8.26,8.26,0,0,0,18.87,31,7,7,0,0,0,16.16,34a8.75,8.75,0,0,0-.9,3.92,3.65,3.65,0,0,0,.68,2.37,2.19,2.19,0,0,0,1.78.84,3,3,0,0,0,2.18-.9,8.07,8.07,0,0,0,1.71-2.92,39.42,39.42,0,0,0,1.53-5.47,1,1,0,0,1,.49-.68,2.23,2.23,0,0,1,1-.18q1.44,0,1.45.83a1.44,1.44,0,0,1-.06.36q-.53,1.75-1,3.86a17.2,17.2,0,0,0-.44,3.21,2.39,2.39,0,0,0,.33,1.41,1.16,1.16,0,0,0,1,.44,2.22,2.22,0,0,0,1.24-.39,9.33,9.33,0,0,0,1.48-1.32.75.75,0,0,1,.55-.25.48.48,0,0,1,.42.22,1,1,0,0,1,.15.59A1.57,1.57,0,0,1,29.36,41a8.9,8.9,0,0,1-2,1.62,4.58,4.58,0,0,1-2.34.56,3.47,3.47,0,0,1-2.3-.73,3.28,3.28,0,0,1-1.1-2.06,4.79,4.79,0,0,1-4.44,2.79A5.22,5.22,0,0,1,14.71,42.58Z"/>
        <path class="cls-2" d="M44,34.22a7.48,7.48,0,0,1-3.56,1.59,3.78,3.78,0,0,1,1.91,1A2.26,2.26,0,0,1,43,38.4a3.44,3.44,0,0,1-1,2.47A6.58,6.58,0,0,1,39,42.48a16.71,16.71,0,0,1-4.66.57q-1,0-1.63-.05a.86.86,0,0,1-.49.76A2.52,2.52,0,0,1,31,44a1.37,1.37,0,0,1-1-.29,1.06,1.06,0,0,1-.23-.85,45.83,45.83,0,0,1,.71-5.28,46.72,46.72,0,0,1,1.34-5.34,1,1,0,0,1,.57-.63,2.9,2.9,0,0,1,1.12-.18q1.24,0,1.24.61a1.65,1.65,0,0,1-.12.58,28.52,28.52,0,0,0-1.06,3.81A40.8,40.8,0,0,0,32.86,41q1,.07,1.59.07a9.09,9.09,0,0,0,4.18-.73A2.14,2.14,0,0,0,40,38.49a1.59,1.59,0,0,0-.76-1.33,4.82,4.82,0,0,0-2.55-.59.85.85,0,0,1-.57-.18.71.71,0,0,1-.16-.52,1.37,1.37,0,0,1,.24-.85,1.1,1.1,0,0,1,.9-.34,10.23,10.23,0,0,0,2.61-.38,4.54,4.54,0,0,0,1.84-1,1.92,1.92,0,0,0,.67-1.45A1.83,1.83,0,0,0,41,30.24a8,8,0,0,0-3.56-.6,17.76,17.76,0,0,0-4.21.49,14.93,14.93,0,0,0-3.46,1.25,2.49,2.49,0,0,1-1.1.34.69.69,0,0,1-.56-.23.84.84,0,0,1-.19-.57,1.37,1.37,0,0,1,.21-.77,2.81,2.81,0,0,1,1-.74,16.37,16.37,0,0,1,4-1.35,22.62,22.62,0,0,1,4.7-.49,10.82,10.82,0,0,1,5.49,1.1,3.29,3.29,0,0,1,1.81,2.9A3.44,3.44,0,0,1,44,34.22Z"/>
        <path class="cls-2" d="M49.35,42.41a6.15,6.15,0,0,1-2.75-2.22,5.92,5.92,0,0,1-1-3.35,9.57,9.57,0,0,1,1.13-4.7A8.11,8.11,0,0,1,49.84,29a8.38,8.38,0,0,1,4.29-1.12,4.92,4.92,0,0,1,3.34,1,3.34,3.34,0,0,1,1.14,2.64,3.17,3.17,0,0,1-.44,1.76,1.41,1.41,0,0,1-1.25.67,1.51,1.51,0,0,1-.89-.23A.79.79,0,0,1,55.7,33a3.84,3.84,0,0,1,.08-.59,4.08,4.08,0,0,0,.12-.86q0-1.64-2-1.64a4.72,4.72,0,0,0-2.56.77,5.57,5.57,0,0,0-2,2.28,7.9,7.9,0,0,0-.75,3.57A4.18,4.18,0,0,0,50,39.85,6,6,0,0,0,54,41a12.43,12.43,0,0,0,2.68-.3,22.66,22.66,0,0,0,3-.91,1.58,1.58,0,0,1,.51-.11.57.57,0,0,1,.49.22.9.9,0,0,1,.16.56q0,1.1-1.34,1.62a15.3,15.3,0,0,1-3,.82,17.92,17.92,0,0,1-3,.26A10.44,10.44,0,0,1,49.35,42.41Z"/>
      </g>
    </g>
  </g>
</svg>
