<svg xmlns="http://www.w3.org/2000/svg" viewBox="0 0 72 72">
  <defs>
    <style>
      .cls-1 {
        fill: #d1d1d1;
      }

      .cls-2 {
        fill: #333;
      }
    </style>
  </defs>
  <title>proza_libre_thumb</title>
  <g id="Layer_2" data-name="Layer 2">
    <g id="Layer_1-2" data-name="Layer 1">
      <rect class="cls-1" width="72" height="72"/>
      <g>
        <path class="cls-2" d="M19.68,39.79h-6.6l-1.26,4H7.92L14.09,26.6h5.64l6.16,17.17H21ZM19,37.41l-1.79-5.65-.66-2.58h-.27l-.65,2.58L13.8,37.41Z"/>
        <path class="cls-2" d="M40.11,34.23a8.16,8.16,0,0,1,1.51.52,5.58,5.58,0,0,1,1.35.85,4.2,4.2,0,0,1,1,1.2,3.22,3.22,0,0,1,.37,1.55,3.82,3.82,0,0,1-.59,2A5.69,5.69,0,0,1,42,42.08a9.44,9.44,0,0,1-2.75,1.22,13.76,13.76,0,0,1-3.74.46H29V26.6h7.26a15.31,15.31,0,0,1,3.14.29,8,8,0,0,1,2.27.8A4,4,0,0,1,43,28.88a2.58,2.58,0,0,1,.46,1.47,2.62,2.62,0,0,1-.27,1.18,4,4,0,0,1-.73,1,7,7,0,0,1-1.07.88Q40.79,33.84,40.11,34.23Zm-2.63-.52a3.14,3.14,0,0,0,1-1,2.47,2.47,0,0,0,.4-1.39,1.87,1.87,0,0,0-.22-.91,2,2,0,0,0-.62-.69,3,3,0,0,0-1-.44,5,5,0,0,0-1.28-.15H33.64v4.56Zm-3.84,7.5h2.25A5,5,0,0,0,37.45,41a3.35,3.35,0,0,0,1.13-.6,2.52,2.52,0,0,0,.68-.87,2.38,2.38,0,0,0,.22-1,2,2,0,0,0-.29-1.1,2.23,2.23,0,0,0-.78-.75,3.72,3.72,0,0,0-1.19-.43,7.72,7.72,0,0,0-1.48-.13H33.64Z"/>
        <path class="cls-2" d="M63.22,42.18a7,7,0,0,1-1.44.81,11.82,11.82,0,0,1-1.69.56,14.84,14.84,0,0,1-3.54.45,11.3,11.3,0,0,1-3.72-.59,8.94,8.94,0,0,1-3-1.68,7.69,7.69,0,0,1-2-2.62,8.09,8.09,0,0,1-.71-3.43,8.55,8.55,0,0,1,.43-2.75,8.39,8.39,0,0,1,1.19-2.3,9,9,0,0,1,1.81-1.83,11.08,11.08,0,0,1,2.28-1.34,12.75,12.75,0,0,1,2.6-.81,14.09,14.09,0,0,1,2.79-.28l1.05,0q.6,0,1.27.1t1.37.19q.7.12,1.38.28l-.69,2.77-.27.09a10.76,10.76,0,0,0-2.32-.71,11.4,11.4,0,0,0-1.95-.19,6.82,6.82,0,0,0-2.5.44,5.64,5.64,0,0,0-1.93,1.24,5.52,5.52,0,0,0-1.25,1.91A6.64,6.64,0,0,0,52,35a6.83,6.83,0,0,0,.46,2.54,5.56,5.56,0,0,0,1.33,2,6.07,6.07,0,0,0,2.14,1.3,8.35,8.35,0,0,0,2.88.46A10,10,0,0,0,61.13,41a12.13,12.13,0,0,0,2.09-.7Z"/>
      </g>
    </g>
  </g>
</svg>
