<svg xmlns="http://www.w3.org/2000/svg" viewBox="0 0 72 72">
  <defs>
    <style>
      .cls-1 {
        fill: #d1d1d1;
      }

      .cls-2 {
        fill: #333;
      }
    </style>
  </defs>
  <title>quattrocento_sans_thumb</title>
  <g id="Layer_2" data-name="Layer 2">
    <g id="Layer_1-2" data-name="Layer 1">
      <rect class="cls-1" width="72" height="72"/>
      <g>
        <path class="cls-2" d="M28.57,43.71H25.18l-2-4.61H16.39l-1.84,4.61H11.29l6.94-15.84h2.69ZM17.26,36.94h4.91l-2.58-5.83Z"/>
        <path class="cls-2" d="M41,31.9a3.39,3.39,0,0,1-.45,1.73A3.69,3.69,0,0,1,39.12,35a5.36,5.36,0,0,1,2.55,1.5A3.73,3.73,0,0,1,42.59,39a4.43,4.43,0,0,1-.41,1.88,4.24,4.24,0,0,1-1.25,1.55,6.41,6.41,0,0,1-2.09,1.06,9.8,9.8,0,0,1-2.93.39H33a11.49,11.49,0,0,1-2.36-.2V27.87a3.77,3.77,0,0,1,.84-.07H35a7.84,7.84,0,0,1,4.41,1A3.46,3.46,0,0,1,41,31.9ZM35.54,30c-.36,0-.68,0-1,0l-.8.08v4.1l.67,0h.69A2.47,2.47,0,0,0,37,33.55a2.58,2.58,0,0,0,.68-1.86,1.52,1.52,0,0,0-.56-1.2A2.35,2.35,0,0,0,35.54,30Zm.24,6.26h-2v5.38c.33,0,.66,0,1,0h1.06A4.11,4.11,0,0,0,38.41,41a2.48,2.48,0,0,0,.92-2.08A2.38,2.38,0,0,0,38.5,37,4.2,4.2,0,0,0,35.78,36.27Z"/>
        <path class="cls-2" d="M58.7,31.28a8,8,0,0,0-2.07-.85,10.66,10.66,0,0,0-2.75-.32,6.91,6.91,0,0,0-2.51.41,4.28,4.28,0,0,0-1.7,1.15,4.75,4.75,0,0,0-1,1.79,8.11,8.11,0,0,0-.31,2.32,6.19,6.19,0,0,0,1.4,4.39,5.25,5.25,0,0,0,4,1.49,9.65,9.65,0,0,0,3-.43A8,8,0,0,0,59,40.16l.81,2.38a13.79,13.79,0,0,1-2.62,1,12.46,12.46,0,0,1-3.46.44,10.4,10.4,0,0,1-3.85-.65,7.64,7.64,0,0,1-2.7-1.75A7,7,0,0,1,45.6,39,9.14,9.14,0,0,1,45.09,36a8.87,8.87,0,0,1,.57-3.19,7.32,7.32,0,0,1,1.7-2.6,8,8,0,0,1,2.79-1.76A10.7,10.7,0,0,1,54,27.75,15.81,15.81,0,0,1,57,28a11.07,11.07,0,0,1,2.52.76Z"/>
      </g>
    </g>
  </g>
</svg>
