<svg xmlns="http://www.w3.org/2000/svg" viewBox="0 0 72 72">
  <defs>
    <style>
      .cls-1 {
        fill: #d1d1d1;
      }

      .cls-2 {
        fill: #333;
      }
    </style>
  </defs>
  <title>roboto_thumb</title>
  <g id="Layer_2" data-name="Layer 2">
    <g id="Layer_1-2" data-name="Layer 1">
      <rect class="cls-1" width="72" height="72"/>
      <g>
        <path class="cls-2" d="M22,40.25H15l-1.32,3.52H9.44L16.62,26.7H20.3l7.22,17.06H23.29ZM16.06,37.4h4.82L18.46,31Z"/>
        <path class="cls-2" d="M29.32,43.77V26.7h6.75a14.57,14.57,0,0,1,3,.28,6.86,6.86,0,0,1,2.24.86,4,4,0,0,1,1.4,1.46,4.24,4.24,0,0,1,.48,2.07A3.78,3.78,0,0,1,43,32.5a3.39,3.39,0,0,1-.5,1,3.87,3.87,0,0,1-.85.85,4.55,4.55,0,0,1-1.23.63,4.53,4.53,0,0,1,1.45.57,3.84,3.84,0,0,1,1,.88,3.37,3.37,0,0,1,.57,1.1,4.17,4.17,0,0,1,.18,1.21,4.28,4.28,0,0,1-1.81,3.75,8.9,8.9,0,0,1-5.14,1.27Zm4-9.91h2.94a3.93,3.93,0,0,0,2.26-.57,1.81,1.81,0,0,0,.74-1.55,1.86,1.86,0,0,0-.76-1.67,4.42,4.42,0,0,0-2.4-.51H33.29Zm0,2.48v4.61h3.4A4.56,4.56,0,0,0,38,40.77a2.74,2.74,0,0,0,.93-.47,1.88,1.88,0,0,0,.55-.7,2.16,2.16,0,0,0,.18-.88,2.91,2.91,0,0,0-.16-1A1.86,1.86,0,0,0,39,37a2.23,2.23,0,0,0-.88-.47,4.52,4.52,0,0,0-1.3-.16Z"/>
        <path class="cls-2" d="M61.76,38.08a6.36,6.36,0,0,1-.66,2.39,5.64,5.64,0,0,1-1.54,1.87,7.28,7.28,0,0,1-2.38,1.22A10.6,10.6,0,0,1,54,44a9.22,9.22,0,0,1-3.33-.57,6.81,6.81,0,0,1-2.5-1.63,7.23,7.23,0,0,1-1.58-2.58,10,10,0,0,1-.55-3.4V34.68a9.7,9.7,0,0,1,.57-3.41,7.35,7.35,0,0,1,1.61-2.59A7,7,0,0,1,50.75,27a9.1,9.1,0,0,1,3.31-.57,10.27,10.27,0,0,1,3.18.45,7.05,7.05,0,0,1,2.35,1.25,5.77,5.77,0,0,1,1.51,1.91,7.29,7.29,0,0,1,.69,2.41h-4a4.75,4.75,0,0,0-.3-1.35,2.61,2.61,0,0,0-.67-1,2.84,2.84,0,0,0-1.12-.6,5.9,5.9,0,0,0-1.67-.21,3.53,3.53,0,0,0-3,1.29,6.62,6.62,0,0,0-1,4v1.15a10.87,10.87,0,0,0,.22,2.32A4.56,4.56,0,0,0,51,39.79a2.93,2.93,0,0,0,1.22,1,4.42,4.42,0,0,0,1.81.33,6.17,6.17,0,0,0,1.62-.19,3,3,0,0,0,1.14-.57,2.56,2.56,0,0,0,.71-1,4.25,4.25,0,0,0,.32-1.34Z"/>
      </g>
    </g>
  </g>
</svg>
