<svg xmlns="http://www.w3.org/2000/svg" viewBox="0 0 72 72">
  <defs>
    <style>
      .cls-1 {
        fill: #d1d1d1;
      }

      .cls-2 {
        fill: #333;
      }
    </style>
  </defs>
  <title>shrikhand_thumb</title>
  <g id="Layer_2" data-name="Layer 2">
    <g id="Layer_1-2" data-name="Layer 1">
      <rect class="cls-1" width="72" height="72"/>
      <g>
        <path class="cls-2" d="M23.16,41a1.89,1.89,0,0,0-.11.62,1.1,1.1,0,0,0,.08.44,1.13,1.13,0,0,0,.18.29l.12.16a.66.66,0,0,1,.27.48,1.23,1.23,0,0,1-.05.24.72.72,0,0,1-.47.47,3.56,3.56,0,0,1-1.12.13H15.62a1.88,1.88,0,0,1-.88-.17.51.51,0,0,1-.31-.46.72.72,0,0,1,.08-.31.69.69,0,0,1,.23-.3,3.56,3.56,0,0,1,.42-.25,2.8,2.8,0,0,0,.71-.48,2.1,2.1,0,0,0,.46-.86L17,39H12.8l-.73,1.37a3.34,3.34,0,0,0-.46,1.39.88.88,0,0,0,.11.47,1.6,1.6,0,0,0,.32.37,1.44,1.44,0,0,1,.26.32.49.49,0,0,1,0,.35.72.72,0,0,1-.45.49,3.19,3.19,0,0,1-1.07.13h-4a1.8,1.8,0,0,1-.95-.2.61.61,0,0,1-.33-.54.72.72,0,0,1,.31-.61A4.84,4.84,0,0,1,6.72,42,7.47,7.47,0,0,0,8,41.3a3,3,0,0,0,.84-1l4.83-8.86a7.63,7.63,0,0,1,2.62-3,7.53,7.53,0,0,1,4-.92,7.78,7.78,0,0,1,4.29,1,3.14,3.14,0,0,1,1.52,2.77,4.76,4.76,0,0,1-.27,1.54Zm-5.31-4.46,1.44-4.22a1.69,1.69,0,0,0,.11-.6.82.82,0,0,0-.29-.68,1.25,1.25,0,0,0-.8-.23,1.84,1.84,0,0,0-1.11.34,3.56,3.56,0,0,0-.92,1.2L14,36.56Z"/>
        <path class="cls-2" d="M43.84,28.36a4.77,4.77,0,0,1,2.09,1.34,3,3,0,0,1,.72,2,3.42,3.42,0,0,1-.19,1.15q-.79,2.42-4.53,3.07A4.31,4.31,0,0,1,44,37a2.66,2.66,0,0,1,.76,1.93,4.43,4.43,0,0,1-.22,1.25A4.54,4.54,0,0,1,42.13,43a11.7,11.7,0,0,1-5.11.9H25.73a1.88,1.88,0,0,1-.88-.17.51.51,0,0,1-.31-.46.72.72,0,0,1,.08-.31.83.83,0,0,1,.35-.41l.3-.17a3.54,3.54,0,0,0,.71-.49,2,2,0,0,0,.46-.83l3.31-10.34a1.83,1.83,0,0,0,.11-.6.93.93,0,0,0-.1-.44,4.29,4.29,0,0,0-.26-.42.93.93,0,0,1-.24-.5,1.15,1.15,0,0,1,.05-.26.73.73,0,0,1,.47-.44,3.56,3.56,0,0,1,1.13-.13h9.71A9.52,9.52,0,0,1,43.84,28.36Zm-6.22,9.9q0-1.3-1.68-1.3H34.58L33,41.7h1.38a3.1,3.1,0,0,0,1.87-.52,3.62,3.62,0,0,0,1.14-1.86A3.44,3.44,0,0,0,37.61,38.26Zm2-7Q39.59,30,38,30H36.77l-1.44,4.49h1.19a3,3,0,0,0,1.8-.49,3.41,3.41,0,0,0,1.07-1.76A2.92,2.92,0,0,0,39.59,31.28Z"/>
        <path class="cls-2" d="M51.23,43.26a6.59,6.59,0,0,1-2.89-2.2,5.75,5.75,0,0,1-1.07-3.52,9.79,9.79,0,0,1,.57-3.12,9.57,9.57,0,0,1,3.77-5.2,9.92,9.92,0,0,1,5.4-1.6,8.46,8.46,0,0,1,2.74.41,7.67,7.67,0,0,1,2.2,1.18l.73-.5a6.27,6.27,0,0,1,1.23-.7A3.12,3.12,0,0,1,65,27.82a2,2,0,0,1,1.09.26.86.86,0,0,1,.41.77,1.41,1.41,0,0,1-.11.53L64.9,33.13a2,2,0,0,1-.58.91,1.63,1.63,0,0,1-1,.26,1.56,1.56,0,0,1-1.15-.44,6.48,6.48,0,0,1-1-1.52,6.48,6.48,0,0,0-1.06-1.49,1.75,1.75,0,0,0-1.19-.36,2.88,2.88,0,0,0-2.14,1.21,11.52,11.52,0,0,0-1.87,3.64,10.89,10.89,0,0,0-.71,3.41,2.65,2.65,0,0,0,.52,1.79,1.75,1.75,0,0,0,1.38.59,4,4,0,0,0,2.1-.5,9.27,9.27,0,0,0,1.7-1.37,9.32,9.32,0,0,1,.88-.78,1.18,1.18,0,0,1,.72-.25,1.69,1.69,0,0,1,1,.43,1.08,1.08,0,0,1,.52.86q0,.53-1,1.63a9.11,9.11,0,0,1-2.74,2,8.76,8.76,0,0,1-4,.88A10.72,10.72,0,0,1,51.23,43.26Z"/>
      </g>
    </g>
  </g>
</svg>
