<svg xmlns="http://www.w3.org/2000/svg" viewBox="0 0 72 72">
  <title>thumb_03</title>
  <g id="Layer_2" data-name="Layer 2">
    <g id="Layer_1-2" data-name="Layer 1">
      <rect width="72" height="72" style="fill: #d1d1d1"/>
      <polygon points="12.73 30.47 14.52 34.11 18.54 34.7 15.64 37.53 16.32 41.53 12.73 39.64 9.13 41.53 9.82 37.53 6.91 34.7 10.94 34.11 12.73 30.47" style="fill: #333"/>
      <polygon points="36 27.06 38.9 32.95 45.41 33.9 40.7 38.47 41.81 44.94 36 41.89 30.18 44.94 31.3 38.47 26.59 33.9 33.1 32.95 36 27.06" style="fill: #333"/>
      <polygon points="59.27 30.47 61.06 34.11 65.09 34.7 62.18 37.53 62.87 41.53 59.27 39.64 55.68 41.53 56.36 37.53 53.46 34.7 57.48 34.11 59.27 30.47" style="fill: #333"/>
    </g>
  </g>
</svg>
