<?xml version="1.0" encoding="UTF-8"?>
<svg width="1301px" height="397px" viewBox="0 0 1301 397" version="1.1" xmlns="http://www.w3.org/2000/svg" xmlns:xlink="http://www.w3.org/1999/xlink">
    <!-- Generator: Sketch 44.1 (41455) - http://www.bohemiancoding.com/sketch -->
    <title>Group 12</title>
    <desc>Created with Sketch.</desc>
    <defs></defs>
    <g id="Page-1" stroke="none" stroke-width="1" fill="none" fill-rule="evenodd">
        <g id="Desktop-HD" transform="translate(-87.000000, -3177.000000)">
            <g id="Group-12" transform="translate(56.000000, 3118.000000)">
                <g id="Page-1" transform="translate(165.000000, 62.000000)" stroke="#FFFFFF" stroke-width="3">
                    <path d="M1166.8086,391.679386 C1165.0068,391.679386 1163.22638,391.640002 1161.46733,391.564586" id="Stroke-1"></path>
                    <path d="M1135.29404,387.582885 C1084.72939,374.325629 1051.7937,333.441897 1011.84959,333.441897 C934.904539,333.441897 903.912781,382.88113 828.036407,382.88113 C741.473221,382.88113 710.481462,307.465352 645.291902,307.465352 C550.951921,307.465352 568.346847,376.596482 442.242451,376.596482 C227.395828,376.596482 252.910594,-86.6390706 16.8987371,14.9912322" id="Stroke-3" stroke-dasharray="10.006,25.016"></path>
                    <path d="M5.37845934,20.3025141 C3.8876489,21.0340471 2.38828901,21.786529 0.877173626,22.5607977" id="Stroke-5"></path>
                </g>
                <polygon id="Page-1" fill="#FFFFFF" transform="translate(116.071033, 124.120948) rotate(20.000000) translate(-116.071033, -124.120948) " points="203.036261 23.6869482 29.1058061 131.345519 83.1844778 169.100834 156.431546 91.3228229 110.068583 187.134268 164.376283 224.554948"></polygon>
            </g>
        </g>
    </g>
</svg>