<?xml version="1.0" encoding="UTF-8"?>
<svg width="546px" height="410px" viewBox="0 0 546 410" version="1.1" xmlns="http://www.w3.org/2000/svg" xmlns:xlink="http://www.w3.org/1999/xlink">
    <!-- Generator: Sketch 44.1 (41455) - http://www.bohemiancoding.com/sketch -->
    <title>Group 11</title>
    <desc>Created with Sketch.</desc>
    <defs></defs>
    <g id="Page-1" stroke="none" stroke-width="1" fill="none" fill-rule="evenodd">
        <g id="Desktop-HD" transform="translate(-98.000000, -2049.000000)">
            <g id="Group-11" transform="translate(101.000000, 2052.000000)">
                <g id="Group-2" transform="translate(7.000000, 0.000000)">
                    <path d="M109,54.5 C109,84.5994229 84.5994229,109 54.5,109 C24.4005771,109 0,84.5994229 0,54.5 C0,24.4005771 24.4005771,0 54.5,0 C84.5994229,0 109,24.4005771 109,54.5" id="Fill-1" stroke="#FFFFFF" stroke-width="6" fill="#B94E41"></path>
                    <path d="M77.6906944,44.5386477 L54.5000347,66.7169418 L31.3093749,44.5386477 C28.4351714,41.7899068 26.8093558,37.9856509 26.8093558,34.0084506 C26.8093558,20.9173599 42.7316738,14.4674712 51.8426181,23.8676382 L54.5000347,26.6096207 L57.1574512,23.8676382 C66.2683955,14.4674712 82.1907135,20.9173599 82.1907135,34.0084506 C82.1907135,37.9856509 80.5648979,41.7899068 77.6906944,44.5386477" id="Fill-3" fill="#FFFFFF"></path>
                    <path d="M40.5052318,74.6814626 C40.8862986,74.986628 41.0770919,75.4025262 41.0770919,75.9291574 C41.0770919,76.2343227 41.0283971,76.5322099 40.9315275,76.8233386 L37.6667262,87.428744 C37.6251364,87.5952766 37.6043415,87.7406677 37.6043415,87.8654372 C37.6043415,88.0458331 37.6388264,88.1877583 37.7083161,88.2917329 C37.7776324,88.3957075 37.8746754,88.4965628 37.9994448,88.5932591 C38.0963145,88.6904754 38.1658041,88.7700159 38.207394,88.8324006 C38.2488105,88.8949587 38.2559154,88.9746725 38.2281889,89.0715421 C38.1586992,89.251938 38.0202397,89.3834658 37.8122906,89.4666455 C37.6043415,89.5498251 37.2853129,89.5914149 36.8557246,89.5914149 L32.1144846,89.5914149 C31.7542127,89.5914149 31.4904639,89.532496 31.3242779,89.4148315 C31.1579186,89.2969936 31.1026388,89.1410318 31.1579186,88.9467727 C31.213545,88.7804134 31.3591094,88.6350223 31.5946118,88.5100795 C31.8025609,88.3993466 31.9760251,88.2676455 32.1144846,88.1151494 C32.252944,87.9626534 32.3709552,87.7198728 32.4679981,87.3871542 L35.6288248,77.0104928 C35.6704146,76.8857234 35.6912095,76.7817488 35.6912095,76.6985692 C35.6912095,76.5462464 35.6529122,76.4214769 35.5768375,76.3242607 C35.5004162,76.2273911 35.4000808,76.1301749 35.2753113,76.033132 C35.1366785,75.922399 35.0361698,75.8251828 34.9737851,75.7420032 C34.9114003,75.6588235 34.9010029,75.5480906 34.9425927,75.4092846 C35.0257723,75.0904293 35.4624655,74.8135103 36.2526722,74.5774881 C37.0428789,74.3419857 37.8673971,74.2239746 38.7272668,74.2239746 C39.5311634,74.2239746 40.1238184,74.3766439 40.5052318,74.6814626" id="Fill-5" fill="#FFFFFF"></path>
                    <path d="M46.7645178,81.2214973 C46.4385576,81.7413701 46.0538517,82.7221968 45.6104002,84.1638041 C45.1664288,85.6059313 44.944963,86.6177771 44.944963,87.2000347 C44.944963,87.5052 44.9933111,87.7093367 45.0905273,87.8134846 C45.1872237,87.9174591 45.3192714,87.9692731 45.4856307,87.9692731 C45.7767595,87.9973463 46.0782857,87.7478073 46.3902094,87.2208296 C46.7021331,86.6940251 47.0935973,85.6683161 47.5651219,84.1430092 C47.9947102,82.7986181 48.2097642,81.8212572 48.2097642,81.2109266 C48.2097642,80.9199711 48.1645353,80.7191269 48.0745973,80.6080474 C47.9841394,80.4971412 47.8562507,80.4416881 47.6898914,80.4416881 C47.3987626,80.4416881 47.0901315,80.7016245 46.7645178,81.2214973 M51.9216561,79.734661 C52.8158374,80.4971412 53.262928,81.495297 53.262928,82.7291285 C53.262928,83.1450267 53.2073016,83.6096197 53.0965687,84.1223876 C52.8331665,85.2593494 52.3408469,86.2538661 51.6201299,87.1064576 C50.8990663,87.959049 50.0152825,88.6177278 48.9687785,89.081801 C47.921928,89.5465672 46.7886052,89.7786038 45.5688103,89.7786038 C43.6416418,89.7786038 42.2171903,89.3938979 41.2952825,88.6244862 C40.3732014,87.8550744 39.9125941,86.8328312 39.9125941,85.5572366 C39.9125941,85.1276483 39.9677006,84.6493653 40.0789534,84.1223876 C40.3420091,83.0410521 40.8447261,82.0811936 41.5865846,81.2422922 C42.3279232,80.4035641 43.236141,79.7521634 44.3107181,79.2875704 C45.3847754,78.8231507 46.5321347,78.5907676 47.7522762,78.5907676 C49.637335,78.5907676 51.0274749,78.9723542 51.9216561,79.734661" id="Fill-7" fill="#FFFFFF"></path>
                    <path d="M65.323752,79.3811302 C65.8087933,79.9081079 66.0515739,80.628825 66.0515739,81.5436278 C66.0515739,82.7779792 65.6218124,84.0391906 64.7622893,85.3284752 C63.902593,86.6177598 62.8144992,87.6817661 61.4974881,88.5204943 C60.1801304,89.3593957 58.898124,89.7785865 57.6504293,89.7785865 C56.4580143,89.7785865 55.4910509,89.5363258 54.7493657,89.0507645 C54.0076804,88.5657232 53.6370111,87.8725595 53.6370111,86.9712733 C53.6370111,86.6385547 53.6993959,86.2642463 53.8241653,85.848348 L55.1342448,81.3774418 C55.1617981,81.2667089 55.1756614,81.183356 55.1756614,81.1279029 C55.1756614,80.9894434 55.1410032,80.8716056 55.0718601,80.7743893 C55.0021971,80.6775197 54.9055008,80.5735452 54.7807313,80.4624657 C54.5727822,80.2824164 54.4688076,80.1228154 54.4688076,79.9840094 C54.4547711,79.7900968 54.5727822,79.5821477 54.8221479,79.3603353 C55.0718601,79.1388695 55.4217345,78.9548345 55.8724642,78.8092701 C56.3228474,78.6637057 56.8323227,78.5907502 57.4008903,78.5907502 C58.3295564,78.5907502 59.0540859,78.816375 59.5739587,79.2667582 C60.0938315,79.7173146 60.3537679,80.3032113 60.3537679,81.023755 C60.3537679,81.3429569 60.2981415,81.6893655 60.1874086,82.0635006 L58.8357393,86.5137852 C58.7941494,86.6385547 58.7733545,86.742356 58.7733545,86.8257089 C58.7733545,87.0061048 58.8357393,87.1447375 58.9605087,87.2416072 C59.0852782,87.3388234 59.2583959,87.3871715 59.4803816,87.3871715 C59.7852003,87.3871715 60.1423529,87.2520046 60.5513196,86.9816707 C60.9599396,86.7113369 61.3654404,86.3235118 61.7676486,85.8171556 C62.1696836,85.3113194 62.4956439,84.7117328 62.7451828,84.0183957 C62.1904785,83.5333544 61.7990143,83.0548981 61.5702703,82.5833734 C61.3415262,82.1123687 61.2271542,81.6269808 61.2271542,81.1279029 C61.2271542,80.4208758 61.4210668,79.8214625 61.8094118,79.3291429 C62.1974102,78.83717 62.7586995,78.5907502 63.4936264,78.5907502 C64.2285533,78.5907502 64.8381908,78.854499 65.323752,79.3811302" id="Fill-9" fill="#FFFFFF"></path>
                </g>
                <path d="M78.2295072,83.4153952 C78.8115914,83.4153952 79.2552162,83.1448881 79.5603816,82.6042203 C79.865027,82.0635526 80.0105914,81.4606734 79.9969014,80.7952362 C79.9830382,80.4072378 79.872132,80.2129787 79.6641828,80.2129787 C79.5115135,80.2129787 79.3314642,80.3344556 79.1236884,80.5768897 C78.9157393,80.8196703 78.7109094,81.1834079 78.5102385,81.6686226 C78.3090477,82.1540105 78.1392226,82.7291631 78.0007631,83.3946003 C78.0558696,83.4084636 78.1322909,83.4153952 78.2295072,83.4153952 M83.677601,79.3291949 C84.4679809,79.8904843 84.862911,80.608082 84.862911,81.4814684 C84.862911,81.7448706 84.8350111,81.9876512 84.7799046,82.2092903 C84.5719555,83.1240932 83.9929905,83.7793062 83.0433561,84.1744095 C82.0937218,84.5693396 80.9744356,84.7670645 79.6849777,84.7670645 C79.0334038,84.7670645 78.4234197,84.7254747 77.8551987,84.6422951 C77.8411622,85.3631854 78.035248,85.8690216 78.437283,86.1603237 C78.8394913,86.4514525 79.4007806,86.5968436 80.1218442,86.5968436 C80.4545628,86.5968436 80.7732448,86.5590661 81.0782369,86.4824715 C81.3830556,86.4065701 81.7714006,86.2921981 82.2429253,86.1395288 C82.6307504,86.0010693 82.8943259,85.9315797 83.033132,85.9315797 C83.1854547,85.9315797 83.261876,86.0218642 83.261876,86.2019135 C83.2753927,86.6873014 83.0955167,87.1967768 82.7212083,87.7301663 C82.3468998,88.2640757 81.7921955,88.7180979 81.057442,89.0924064 C80.3225151,89.4667148 79.4356121,89.653869 78.3958665,89.653869 C76.8570429,89.653869 75.5953116,89.2658706 74.6111924,88.4891806 C73.6265533,87.7130105 73.1347536,86.5833269 73.1347536,85.0997831 C73.1347536,84.6837116 73.1898601,84.1988436 73.3011129,83.643966 C73.6475215,81.9387831 74.4063625,80.653311 75.5779825,79.786683 C76.7494293,78.9204016 78.1738808,78.487001 79.851337,78.487001 C81.611973,78.487001 82.8875676,78.7677323 83.677601,79.3291949" id="Fill-11" fill="#FFFFFF"></path>
                <g id="Group-9" transform="translate(0.000000, 274.000000)">
                    <path d="M65,130 C29.1016057,130 0,100.898394 0,65 C0,29.1016057 29.1016057,0 65,0 C100.898394,0 130,29.1016057 130,65 C130,100.898394 100.898394,130 65,130 Z" id="Fill-1" stroke="#FFFFFF" stroke-width="6" fill="#FCB040"></path>
                    <g id="Page-1" transform="translate(28.000000, 19.000000)" fill="#FFFFFF">
                        <path d="M40.947741,30.9067704 C33.5762388,30.9067704 27.5791052,24.9096368 27.5791052,17.5381346 C27.5791052,10.1664278 33.5762388,4.16929423 40.947741,4.16929423 C48.3192432,4.16929423 54.3165814,10.1664278 54.3165814,17.5381346 C54.3165814,24.9096368 48.3192432,30.9067704 40.947741,30.9067704 M40.947741,0.233406789 C31.4059353,0.233406789 23.6432178,7.99612428 23.6432178,17.5381346 C23.6432178,21.6360736 25.0761051,25.4052034 27.4655464,28.372874 L22.0145183,33.8239022 L17.2307249,29.0401089 L14.4474084,31.8232208 L19.2312017,36.6070141 L14.4474084,41.391012 L17.2307249,44.174124 L22.0145183,39.390126 L26.5947241,43.9705365 L29.3778361,41.1874246 L24.7974256,36.6070141 L30.2633903,31.141254 C33.2075307,33.4586724 36.919165,34.8426578 40.947741,34.8426578 C50.4897513,34.8426578 58.2524688,27.0799403 58.2524688,17.5381346 C58.2524688,7.99612428 50.4897513,0.233406789 40.947741,0.233406789" id="Fill-3"></path>
                        <path d="M8.4416403,57.8803875 C8.4416403,58.1377875 8.48358545,58.3712481 8.56747576,58.5811784 C8.65136606,58.7909042 8.76758482,58.9713707 8.91572281,59.1223732 C9.06406542,59.2735803 9.23614285,59.3910268 9.43195509,59.4749171 C9.62776733,59.5588074 9.83749308,59.6007525 10.061337,59.6007525 C10.2739273,59.6007525 10.4740363,59.5631042 10.6614595,59.4873983 C10.8488828,59.411897 11.0137988,59.3028397 11.1566169,59.1602261 C11.2992304,59.0176126 11.4111524,58.8455352 11.4921781,58.6439939 C11.5734085,58.4426571 11.6139214,58.2161533 11.6139214,57.9642778 C11.6139214,57.7126069 11.5719762,57.4818063 11.4880859,57.2718759 C11.4041956,57.0621501 11.2879769,56.8816837 11.1398389,56.7306811 C10.9914963,56.5796786 10.8194188,56.4634598 10.6236066,56.3824341 C10.4277944,56.3012037 10.2180686,56.2606908 9.99422472,56.2606908 C9.78163442,56.2606908 9.58152536,56.2985438 9.39410215,56.3740451 C9.20667893,56.4495463 9.04176288,56.5571714 8.89894475,56.697125 C8.75633124,56.836874 8.6444093,57.0062915 8.56338355,57.2047637 C8.48215318,57.4034404 8.4416403,57.6287166 8.4416403,57.8803875 L8.4416403,57.8803875 Z M8.99552091,64.4933986 C8.90037703,64.5605109 8.80523315,64.6304877 8.71008927,64.703329 C8.61515,64.7759657 8.52982742,64.8543315 8.45432615,64.9382218 C8.37862027,65.0221121 8.31723712,65.1131638 8.26956288,65.2109676 C8.22209324,65.3089761 8.19835843,65.4137366 8.19835843,65.5256586 C8.19835843,65.8110902 8.35918227,66.0488476 8.68082997,66.2391354 C9.00247766,66.4292185 9.47390024,66.5243624 10.0948931,66.5243624 C10.464215,66.5243624 10.7887273,66.489374 11.0684298,66.4193972 C11.3481324,66.349625 11.5817975,66.2571411 11.7692207,66.1425592 C11.956644,66.0277727 12.0978252,65.8978451 12.1929691,65.752367 C12.288113,65.6068889 12.3355826,65.4585463 12.3355826,65.3075438 C12.3355826,65.0556683 12.2126117,64.8571961 11.9664653,64.711718 C11.7201142,64.56624 11.376164,64.4933986 10.9342053,64.4933986 L8.99552091,64.4933986 Z M7.57716097,64.317229 C7.10164618,64.1549729 6.73948561,63.9522039 6.49047464,63.7087174 C6.24146367,63.4654355 6.11706049,63.1955543 6.11706049,62.8988691 C6.11706049,62.7030568 6.17291916,62.5213627 6.2848411,62.3533775 C6.39676304,62.1855969 6.5422411,62.0276376 6.72127528,61.879295 C6.90030946,61.7309524 7.10307846,61.5912034 7.32958227,61.4596389 C7.5562907,61.3282789 7.78709134,61.1981466 8.02198418,61.0694466 C7.60232806,60.9184441 7.254081,60.7322486 6.977243,60.5112692 C6.7002004,60.2902899 6.47778879,60.0511002 6.31000819,59.7939048 C6.14222758,59.5365048 6.02334889,59.2678513 5.9533721,58.9881487 C5.88339531,58.7084462 5.84840692,58.4342681 5.84840692,58.1658191 C5.84840692,57.6397656 5.96462568,57.157294 6.19665397,56.7179953 C6.42888688,56.2789012 6.74644237,55.9026225 7.14932043,55.5893638 C7.55199388,55.2759005 8.02198418,55.0326187 8.55908672,54.859109 C9.09618927,54.6858039 9.66971248,54.599049 10.2794517,54.599049 C10.4977711,54.599049 10.7173182,54.6115303 10.9382975,54.6366974 C11.1592769,54.6620691 11.3732994,54.6968528 11.5803653,54.7416625 C11.7874311,54.7864722 11.9832433,54.8437632 12.167802,54.91374 C12.3523607,54.9837168 12.5174813,55.0633102 12.6629594,55.1529296 C12.7468497,55.1081199 12.8419936,55.0620826 12.9481864,55.0144083 C13.0545839,54.9669387 13.1748948,54.9249935 13.3091193,54.8885729 C13.4433438,54.8521522 13.5972109,54.8228929 13.7707206,54.8003858 C13.9442303,54.7780832 14.1400425,54.7668296 14.3581573,54.7668296 L15.6336991,54.7668296 L15.2226366,56.5712896 L13.7539425,56.5712896 C13.8265793,56.688736 13.9049451,56.8550843 13.9888354,57.0705392 C14.0727257,57.285994 14.1148754,57.5446217 14.1148754,57.8468314 C14.1148754,58.3391242 13.9972244,58.7937687 13.7623316,59.2105603 C13.5272341,59.6273519 13.2125432,59.9868525 12.8182587,60.2888576 C12.4237697,60.5910673 11.9691252,60.8273924 11.4545298,60.9980376 C10.9397298,61.1686827 10.4026273,61.2540053 9.84322218,61.2540053 C9.77590533,61.2540053 9.70756542,61.252573 9.63758863,61.2499131 C9.56761184,61.2470486 9.49620278,61.2429563 9.42356606,61.2372272 C9.35645382,61.2765125 9.28647703,61.3211176 9.21363569,61.3714517 C9.14099897,61.4219905 9.07245445,61.4792815 9.00820676,61.5435292 C8.94375445,61.6079815 8.89055572,61.6779583 8.84861057,61.7534595 C8.80666542,61.8289608 8.78579515,61.9085543 8.78579515,61.9926492 C8.78579515,62.1491762 8.85433967,62.2778762 8.9914287,62.3785446 C9.12831312,62.4794176 9.32555763,62.5297517 9.58295763,62.5297517 L11.6306994,62.5297517 C12.0335775,62.5297517 12.4350233,62.5716969 12.8350368,62.6555872 C13.2350503,62.7394775 13.5931187,62.871042 13.9092419,63.0500762 C14.2253651,63.2291104 14.4825605,63.4584788 14.6812373,63.7381813 C14.8799141,64.0178838 14.9791502,64.3536497 14.9791502,64.7452741 C14.9791502,65.1481522 14.8645683,65.5620792 14.6351999,65.9872598 C14.4056269,66.4124404 14.0602444,66.7985404 13.5986432,67.1453552 C13.1370419,67.4923746 12.5594265,67.7761694 11.8655923,67.9971487 C11.1719627,68.218128 10.3635467,68.3286177 9.44034412,68.3286177 C8.88073442,68.3286177 8.36327448,68.2854449 7.8877597,68.19869 C7.41224491,68.1119352 6.99954555,67.9860997 6.64986622,67.8209791 C6.30018688,67.6558584 6.0274411,67.4545217 5.83162886,67.2167643 C5.63581661,66.9790069 5.5380128,66.7117856 5.5380128,66.415305 C5.5380128,66.1691586 5.60082822,65.9438824 5.72666367,65.7396811 C5.85270374,65.5354799 6.01352758,65.3480567 6.20933983,65.1774115 C6.40515207,65.0067664 6.62469913,64.851467 6.86818561,64.711718 C7.11146749,64.5717645 7.34779261,64.4404045 7.57716097,64.317229 L7.57716097,64.317229 Z" id="Fill-5"></path>
                        <path d="M22.2888191,58.6272976 C22.2888191,58.2411976 22.2509662,57.9082964 22.1754649,57.6285938 C22.0999636,57.3488913 21.9949984,57.1180907 21.8607739,56.9361919 C21.7265495,56.7544978 21.5671579,56.6200687 21.3823946,56.5335185 C21.1978359,56.4467636 20.9964992,56.4033862 20.7781798,56.4033862 C20.5375579,56.4033862 20.3180108,56.4537204 20.119334,56.5543887 C19.9208619,56.6550571 19.7502167,56.8005352 19.6076032,56.9908229 C19.4647851,57.1811107 19.3542954,57.413139 19.2759296,57.687317 C19.1977684,57.9614951 19.1584832,58.2747538 19.1584832,58.6272976 L22.2888191,58.6272976 Z M24.4875634,62.7311703 C24.1855584,62.9437606 23.8763919,63.1213625 23.5602687,63.263976 C23.2441455,63.4065895 22.9294545,63.5199438 22.6161959,63.6038341 C22.3027326,63.6877244 21.9949984,63.7466522 21.6929933,63.7802083 C21.3907836,63.8137644 21.0998275,63.8305425 20.820125,63.8305425 C20.1039883,63.8305425 19.4578283,63.7339663 18.8816452,63.5410186 C18.3052574,63.3478663 17.8158291,63.0695961 17.412951,62.7060032 C17.010073,62.3422058 16.7009065,61.8947226 16.4856563,61.3631445 C16.2702014,60.8315665 16.1625763,60.2246918 16.1625763,59.5421112 C16.1625763,58.7699112 16.2968008,58.0775093 16.5652498,57.4649054 C16.8339034,56.8523016 17.193404,56.3348417 17.6437517,55.912321 C18.0940994,55.490005 18.6158561,55.1654927 19.2088173,54.9389889 C19.8019832,54.7122805 20.422976,54.5991309 21.0720005,54.5991309 C21.6314056,54.5991309 22.1476379,54.6856811 22.6202881,54.8591908 C23.0931429,55.0327005 23.5015455,55.2886682 23.8454957,55.627094 C24.1896506,55.9655197 24.4568719,56.3851759 24.646955,56.8858577 C24.8372428,57.3867442 24.9323867,57.9643597 24.9323867,58.6189086 C24.9323867,58.8314989 24.9225654,59.0273112 24.9029228,59.2063453 C24.8834848,59.3853795 24.8595453,59.5337221 24.8317183,59.6511686 L19.1584832,59.6511686 C19.1584832,60.042793 19.2270277,60.3785589 19.3641167,60.6582614 C19.5012057,60.9379639 19.697018,61.1687646 19.9515534,61.3506633 C20.2060889,61.5323574 20.5123908,61.6653542 20.8704592,61.7492445 C21.2285275,61.8331348 21.628541,61.87508 22.0707043,61.87508 C22.2272313,61.87508 22.4021733,61.8695555 22.595121,61.8583019 C22.7880687,61.8470484 22.98961,61.8261781 23.1993358,61.7952819 C23.4092662,61.7645903 23.6230841,61.7255097 23.8414035,61.6778355 C24.0595183,61.6303659 24.2749731,61.5673458 24.4875634,61.48898 L24.4875634,62.7311703 Z" id="Fill-7"></path>
                        <path d="M26.9381219,54.7668706 L29.3971308,54.7668706 L29.7494701,56.2271756 C29.9397579,56.0591904 30.1537804,55.8801562 30.3915378,55.6900731 C30.6292952,55.4997853 30.8866952,55.3236157 31.1635332,55.1613596 C31.4405758,54.9991035 31.7356242,54.864879 32.0490874,54.7584815 C32.3623461,54.6520841 32.6895183,54.59909 33.0308086,54.59909 C33.4449402,54.59909 33.8212189,54.673159 34.1596447,54.8215016 C34.4980704,54.9696396 34.7890266,55.1781376 35.032513,55.4465866 C35.2757949,55.7152402 35.4646504,56.0383202 35.5988749,56.4160311 C35.7330994,56.7935375 35.8004162,57.2117613 35.8004162,57.6704981 L35.8004162,63.662721 L32.879806,63.662721 L32.879806,58.0901542 C32.879806,57.8384833 32.8448176,57.6175039 32.7748409,57.4272162 C32.7050687,57.2369284 32.6099248,57.0775369 32.4896138,56.9488369 C32.3693029,56.8201369 32.2281216,56.7235607 32.0658655,56.659313 C31.9036094,56.5950653 31.7300997,56.5627369 31.545541,56.5627369 C31.2378068,56.5627369 30.9454184,56.6382381 30.6683758,56.7894453 C30.3915378,56.9404478 30.1187921,57.1307356 29.8501385,57.3601039 L29.8501385,63.662721 L26.9381219,63.662721 L26.9381219,54.7668706 Z" id="Fill-9"></path>
                        <path d="M44.2261126,56.671917 C43.9631881,56.5599951 43.729523,56.4873583 43.5253217,56.4538022 C43.3211204,56.4202461 43.1547721,56.403468 43.0260721,56.403468 C42.6454966,56.403468 42.3140276,56.4816293 42.0314605,56.6383609 C41.749098,56.7950925 41.5140005,57.0062506 41.3265773,57.2720396 C41.1391541,57.537624 40.9992005,57.8467905 40.9069212,58.1993343 C40.8146419,58.5518782 40.7686045,58.9238601 40.7686045,59.3154846 C40.7686045,59.6958555 40.8105497,60.0428749 40.89444,60.3561335 C40.9783303,60.6693922 41.097209,60.9392734 41.2510761,61.1659819 C41.4049431,61.3924857 41.5880695,61.5674277 41.8006598,61.6903986 C42.0134548,61.8135741 42.2512121,61.8751618 42.5141366,61.8751618 C42.8050928,61.8751618 43.1015734,61.8008882 43.4035784,61.6527502 C43.7057881,61.5044076 43.9799662,61.3016386 44.2261126,61.0442386 L44.2261126,56.671917 Z M44.2261126,50.2182975 L47.1465182,50.2182975 L47.1465182,63.6626391 L44.6541578,63.6626391 L44.326781,62.2862243 C44.1197152,62.4709876 43.9030327,62.6555463 43.6763242,62.8401049 C43.4498204,63.0248682 43.2091985,63.1897843 42.954663,63.3352623 C42.7001276,63.4807404 42.4302463,63.5996191 42.1448147,63.692103 C41.8595877,63.7843824 41.5545134,63.8304197 41.2300012,63.8304197 C40.6928986,63.8304197 40.2118594,63.711541 39.7866788,63.4737836 C39.3614982,63.2360262 38.999133,62.919903 38.6997878,62.525414 C38.4004427,62.1311296 38.1725066,61.6820095 38.0157749,61.1784631 C37.8592479,60.6749167 37.7808821,60.1545922 37.7808821,59.6174897 C37.7808821,59.147704 37.8396053,58.6971517 37.9570517,58.2664466 C38.0747028,57.8355369 38.2424834,57.4342957 38.4605982,57.0621092 C38.6789176,56.6901273 38.9404098,56.3529293 39.2452794,56.0509242 C39.550149,55.7487145 39.8887794,55.4900868 40.2607613,55.274632 C40.6327431,55.0591771 41.0329613,54.8928288 41.4608018,54.7751777 C41.888847,54.6577313 42.3351024,54.5990081 42.7993637,54.5990081 C43.0847953,54.5990081 43.3561088,54.6186507 43.6135088,54.6577313 C43.8709088,54.6970165 44.0751101,54.7389617 44.2261126,54.7835668 L44.2261126,50.2182975 Z" id="Fill-11"></path>
                        <path d="M55.2534928,58.6272976 C55.2534928,58.2411976 55.2156399,57.9082964 55.1401386,57.6285938 C55.0646373,57.3488913 54.9596722,57.1180907 54.8254477,56.9361919 C54.6912232,56.7544978 54.5318316,56.6200687 54.3470683,56.5335185 C54.1625097,56.4467636 53.961173,56.4033862 53.7428536,56.4033862 C53.5022316,56.4033862 53.2826846,56.4537204 53.0840078,56.5543887 C52.8855356,56.6550571 52.7148904,56.8005352 52.5722769,56.9908229 C52.4294588,57.1811107 52.3189691,57.413139 52.2406033,57.687317 C52.1624421,57.9614951 52.1231569,58.2747538 52.1231569,58.6272976 L55.2534928,58.6272976 Z M57.4522372,62.7311703 C57.1502321,62.9437606 56.8410656,63.1213625 56.5249424,63.263976 C56.2088192,63.4065895 55.8941283,63.5199438 55.5808696,63.6038341 C55.2674063,63.6877244 54.9596722,63.7466522 54.6576671,63.7802083 C54.3554574,63.8137644 54.0645013,63.8305425 53.7847987,63.8305425 C53.068662,63.8305425 52.4225021,63.7339663 51.8463189,63.5410186 C51.2699311,63.3478663 50.7805028,63.0695961 50.3776248,62.7060032 C49.9747467,62.3422058 49.6655803,61.8947226 49.45033,61.3631445 C49.2348752,60.8315665 49.1272501,60.2246918 49.1272501,59.5421112 C49.1272501,58.7699112 49.2614745,58.0775093 49.5299235,57.4649054 C49.7985771,56.8523016 50.1580777,56.3348417 50.6084254,55.912321 C51.0587731,55.490005 51.5805299,55.1654927 52.1734911,54.9389889 C52.7666569,54.7122805 53.3876497,54.5991309 54.0366742,54.5991309 C54.5960793,54.5991309 55.1123116,54.6856811 55.5849618,54.8591908 C56.0578167,55.0327005 56.4662192,55.2886682 56.8101695,55.627094 C57.1543243,55.9655197 57.4215456,56.3851759 57.6116288,56.8858577 C57.8019165,57.3867442 57.8970604,57.9643597 57.8970604,58.6189086 C57.8970604,58.8314989 57.8872391,59.0273112 57.8675965,59.2063453 C57.8481585,59.3853795 57.8242191,59.5337221 57.796392,59.6511686 L52.1231569,59.6511686 C52.1231569,60.042793 52.1917014,60.3785589 52.3287904,60.6582614 C52.4658795,60.9379639 52.6616917,61.1687646 52.9162272,61.3506633 C53.1707626,61.5323574 53.4770645,61.6653542 53.8351329,61.7492445 C54.1932013,61.8331348 54.5932148,61.87508 55.035378,61.87508 C55.1919051,61.87508 55.366847,61.8695555 55.5597947,61.8583019 C55.7527424,61.8470484 55.9542838,61.8261781 56.1640095,61.7952819 C56.3739399,61.7645903 56.5877579,61.7255097 56.8060772,61.6778355 C57.024192,61.6303659 57.2396469,61.5673458 57.4522372,61.48898 L57.4522372,62.7311703 Z" id="Fill-13"></path>
                        <path d="M59.9027957,54.7668706 L62.3618046,54.7668706 L62.7141438,57.376882 C62.8037632,57.2146259 62.8946103,57.0495052 62.9868896,56.8817246 C63.079169,56.713944 63.1659238,56.5586446 63.2471542,56.4160311 C63.3281799,56.273213 63.4010213,56.1488098 63.465269,56.0424124 C63.5297213,55.9362195 63.5757586,55.8578537 63.6037903,55.8075195 C63.7099831,55.6340098 63.8302941,55.473186 63.9647232,55.325048 C64.0989477,55.1767054 64.2470857,55.0494376 64.4093418,54.9430402 C64.5715979,54.8368473 64.7534966,54.752957 64.9548334,54.6913693 C65.1563747,54.6297815 65.3802186,54.59909 65.626365,54.59909 C65.7886211,54.59909 65.966223,54.6199602 66.1591707,54.6619054 C66.352323,54.7038505 66.5299249,54.772395 66.692181,54.8675389 L66.3731933,57.4859394 C66.3228591,57.4746858 66.2557469,57.4650691 66.1718566,57.4566801 C66.0879663,57.4480865 65.9997791,57.4411297 65.9074998,57.4356052 C65.8152205,57.4300807 65.7256011,57.4257839 65.6388462,57.4229194 C65.5520914,57.4202594 65.4751578,57.4188272 65.4080456,57.4188272 C64.843116,57.4188272 64.3381373,57.5278845 63.8933141,57.7462039 C63.4484909,57.9643187 63.0889903,58.2440213 62.8148122,58.5853116 L62.8148122,63.662721 L59.9027957,63.662721 L59.9027957,54.7668706 Z" id="Fill-15"></path>
                        <path d="M6.86810377,79.2519944 C6.86810377,78.8658944 6.83025083,78.5329931 6.75474955,78.2532906 C6.67924828,77.973588 6.5742831,77.7427874 6.44005862,77.5608887 C6.30583413,77.3791946 6.14644256,77.2447655 5.96167928,77.1582152 C5.77712062,77.0714604 5.5757839,77.028083 5.3574645,77.028083 C5.11684256,77.028083 4.8972955,77.0784171 4.69861871,77.1790855 C4.50014653,77.2797539 4.32950138,77.4252319 4.18688787,77.6155197 C4.04406975,77.8058074 3.93358008,78.0378357 3.85521426,78.3120138 C3.77705305,78.5861919 3.73776784,78.8994505 3.73776784,79.2519944 L6.86810377,79.2519944 Z M9.06684812,83.3558671 C8.76484304,83.5684574 8.45567658,83.7460593 8.13955337,83.8886728 C7.82343016,84.0312863 7.50873922,84.1446405 7.19548056,84.2285308 C6.88201728,84.3124211 6.5742831,84.3713489 6.27227801,84.4049051 C5.97006831,84.4384612 5.67911219,84.4552392 5.39940965,84.4552392 C4.68327293,84.4552392 4.03711299,84.3586631 3.46092984,84.1657154 C2.88454208,83.9725631 2.39511378,83.6942928 1.99223572,83.3307 C1.58935766,82.9669025 1.28019121,82.5194194 1.06494097,81.9878413 C0.849486121,81.4562632 0.741861002,80.8493885 0.741861002,80.1668079 C0.741861002,79.3946079 0.876085485,78.702206 1.14453445,78.0896022 C1.41318803,77.4769984 1.77268866,76.9595384 2.22303636,76.5370178 C2.67338405,76.1147017 3.19514081,75.7901895 3.78810202,75.5636857 C4.38126784,75.3369772 5.00226068,75.2238276 5.65128517,75.2238276 C6.21069025,75.2238276 6.72692253,75.3103779 7.19957277,75.4838876 C7.67242762,75.6573973 8.08083016,75.913365 8.4247804,76.2517907 C8.76893525,76.5902165 9.03615655,77.0098726 9.2262397,77.5105545 C9.41652746,78.011441 9.51167134,78.5890564 9.51167134,79.2436054 C9.51167134,79.4561957 9.50185003,79.6520079 9.48220742,79.8310421 C9.46276943,80.0100763 9.43883,80.1584189 9.41100297,80.2758653 L3.73776784,80.2758653 C3.73776784,80.6674898 3.80631235,81.0032556 3.94340138,81.2829582 C4.08049041,81.5626607 4.27630266,81.7934613 4.53083811,81.9753601 C4.78537356,82.1570542 5.09167547,82.290051 5.44974383,82.3739413 C5.80781219,82.4578316 6.20782571,82.4997768 6.64998898,82.4997768 C6.80651601,82.4997768 6.98145798,82.4942523 7.17440568,82.4829987 C7.36735337,82.4717451 7.56889471,82.4508748 7.77862046,82.4199787 C7.98855083,82.3892871 8.20236879,82.3502065 8.42068819,82.3025322 C8.63880297,82.2550626 8.85425782,82.1920426 9.06684812,82.1136768 L9.06684812,83.3558671 Z" id="Fill-17"></path>
                        <path d="M17.4423127,77.3217809 C16.9946249,77.1259686 16.5723088,77.0279602 16.1751599,77.0279602 C15.8113624,77.0279602 15.4940115,77.1036661 15.2224934,77.2546686 C14.9511799,77.4056712 14.7246761,77.6084402 14.5427774,77.8631802 C14.3608786,78.1177157 14.2252219,78.4156286 14.1358071,78.7569189 C14.0461877,79.0982092 14.0015826,79.4589375 14.0015826,79.839513 C14.0015826,80.2198839 14.0435278,80.5724278 14.1274181,80.89694 C14.2113084,81.2214522 14.3357115,81.5025871 14.5008322,81.7403445 C14.6659529,81.9781018 14.8701541,82.1640928 15.113436,82.2983173 C15.3569225,82.4327464 15.6380573,82.4998586 15.9568405,82.4998586 C16.1806844,82.4998586 16.4184417,82.4521844 16.6703173,82.3570405 C16.9219882,82.2621012 17.1793882,82.1082341 17.4423127,81.8956438 L17.4423127,77.3217809 Z M16.2674392,75.2237049 C16.7652565,75.2237049 17.2158088,75.274039 17.6184823,75.3747074 C18.0213603,75.4755804 18.3513971,75.5930268 18.6087971,75.7272513 L20.3627182,75.1733707 L20.3627182,88.7854929 L17.4423127,88.7854929 L17.4423127,83.0453502 C17.2184688,83.2243844 16.9862359,83.3991217 16.7458185,83.5697669 C16.5051966,83.740412 16.2576179,83.8914146 16.0030824,84.0229791 C15.748547,84.1545437 15.4841902,84.2593042 15.2100122,84.33767 C14.9358341,84.4160359 14.6504025,84.4551165 14.3539219,84.4551165 C13.8393265,84.4551165 13.3748607,84.33767 12.9609336,84.1027772 C12.546802,83.8676797 12.1944627,83.5558534 11.9035066,83.1668888 C11.6125505,82.7781289 11.3887066,82.3304411 11.231975,81.8242348 C11.0754479,81.3178238 10.9970821,80.7934071 10.9970821,80.2505755 C10.9970821,79.5456923 11.1272144,78.8868465 11.3872743,78.2742427 C11.6475389,77.6616389 12.0111317,77.1300608 12.4782575,76.6797131 C12.9453832,76.2293654 13.5006961,75.8741616 14.1441961,75.6138971 C14.7874915,75.3538371 15.4952392,75.2237049 16.2674392,75.2237049 L16.2674392,75.2237049 Z" id="Fill-19"></path>
                        <path d="M22.8636927,75.3915673 L25.7757093,75.3915673 L25.7757093,80.9471514 C25.7757093,81.1822489 25.8066055,81.3962714 25.8681932,81.5892191 C25.9295764,81.7821668 26.0163312,81.9458552 26.1282531,82.0800797 C26.2401751,82.2145088 26.3729673,82.3180417 26.5268344,82.3906784 C26.6807015,82.4635198 26.8499144,82.4997358 27.0346776,82.4997358 C27.3199047,82.4997358 27.5926504,82.4201424 27.852915,82.2605462 C28.1129749,82.1011546 28.3605536,81.9094346 28.5956511,81.6857953 L28.5956511,75.3915673 L31.5076676,75.3915673 L31.5076676,84.2874177 L29.0488633,84.2874177 L28.6879304,82.8355017 C28.4863891,83.0145358 28.2697066,83.2005268 28.0374737,83.3934745 C27.8052407,83.5866268 27.5590943,83.7613641 27.2990344,83.9180958 C27.0387698,84.0748274 26.7674563,84.2033228 26.4848892,84.3041958 C26.2023221,84.4048641 25.9072738,84.4551983 25.5995396,84.4551983 C25.2582493,84.4551983 24.9239158,84.390746 24.5967436,84.2622506 C24.2693668,84.1335506 23.9769784,83.9418306 23.719783,83.6872951 C23.462383,83.4327597 23.2553172,83.1123397 23.0985856,82.7264443 C22.9420586,82.3403443 22.8636927,81.8899966 22.8636927,81.3751966 L22.8636927,75.3915673 Z" id="Fill-21"></path>
                        <path d="M38.7166068,79.9569389 L38.397619,79.9569389 C37.9556604,79.9569389 37.5906353,79.9890628 37.3025437,80.0535151 C37.0144521,80.1177628 36.7850838,80.2086098 36.6144386,80.3262609 C36.4437934,80.4437073 36.3249148,80.5848885 36.2575979,80.7500092 C36.1904857,80.9151299 36.1569295,81.1011208 36.1569295,81.3081866 C36.1569295,81.5207769 36.1878257,81.7010388 36.2492089,81.8493814 C36.3107966,81.997724 36.3934593,82.1206949 36.4967876,82.2187033 C36.6003205,82.3165071 36.7206314,82.3879162 36.8577205,82.4327259 C36.9948095,82.477331 37.1388553,82.4998381 37.2898578,82.4998381 C37.4969237,82.4998381 37.7193353,82.4564607 37.9570927,82.3697059 C38.19485,82.282951 38.4481578,82.1276517 38.7166068,81.9040124 L38.7166068,79.9569389 Z M38.8172752,83.0033846 C38.6494946,83.1431335 38.4592068,83.2970006 38.2466165,83.4649858 C38.0340262,83.6327664 37.8017933,83.7907257 37.5501224,83.9390683 C37.2982469,84.087411 37.0297979,84.2103819 36.7443663,84.3083903 C36.4591392,84.4061941 36.1569295,84.455096 35.8381464,84.455096 C35.4520464,84.455096 35.1136206,84.381027 34.8226645,84.2326844 C34.5317084,84.0845464 34.2896542,83.8901664 34.0967065,83.6495445 C33.9037588,83.4089226 33.7582807,83.137609 33.6602723,82.8353993 C33.5624685,82.5333943 33.513362,82.2311846 33.513362,81.9291795 C33.513362,81.5150478 33.6070736,81.1262879 33.7944968,80.7626951 C33.98192,80.3988976 34.2743084,80.0813421 34.6714574,79.8100286 C35.0688109,79.5387151 35.5750173,79.3246925 36.1904857,79.1681655 C36.805954,79.0114338 37.5388688,78.933068 38.38923,78.933068 L38.7166068,78.933068 L38.7166068,78.4127435 C38.7166068,77.9595313 38.5766532,77.6155811 38.2969507,77.3804836 C38.0172481,77.1455908 37.6424017,77.0281443 37.1724114,77.0281443 C36.9653456,77.0281443 36.7486631,77.0533114 36.5219547,77.1036456 C36.2954508,77.1539798 36.0675148,77.2225243 35.8381464,77.3092792 C35.608778,77.3958294 35.3849341,77.49793 35.1666148,77.6155811 C34.9485,77.7330275 34.7442987,77.8588629 34.5540109,77.9930874 L34.4030084,77.9091971 L33.907851,76.1384979 C34.6295122,75.8027321 35.3120928,75.566407 35.9555928,75.4293179 C36.5988882,75.2922289 37.2311346,75.2236844 37.8521275,75.2236844 C38.3837055,75.2236844 38.8802952,75.2740186 39.3418965,75.3746869 C39.8034977,75.4755599 40.2035113,75.6390437 40.541937,75.8657521 C40.8803628,76.0922559 41.1475841,76.3875089 41.3433963,76.7511017 C41.5392086,77.1146946 41.6370124,77.5623823 41.6370124,78.0939604 L41.6370124,81.6689149 C41.6370124,81.7695833 41.6454014,81.869024 41.6621795,81.9668278 C41.6791621,82.0648362 41.7098537,82.1528187 41.7546634,82.2311846 C41.7992685,82.3095504 41.8608562,82.3740027 41.9392221,82.4243369 C42.0175879,82.474671 42.1182562,82.4998381 42.2414318,82.4998381 C42.319593,82.4998381 42.3965265,82.494109 42.4720278,82.4830601 C42.5477337,82.4718065 42.6330562,82.4466394 42.7279955,82.4075588 L42.7279955,83.6495445 C42.3644027,83.9012154 42.0008098,84.0984599 41.6370124,84.2410734 C41.2734195,84.3838916 40.9208756,84.455096 40.5795853,84.455096 C40.1376267,84.455096 39.7740338,84.3292606 39.4886022,84.0775897 C39.2033752,83.8257141 38.9795313,83.4676458 38.8172752,83.0033846 L38.8172752,83.0033846 Z" id="Fill-23"></path>
                        <polygon id="Fill-25" points="44.2890917 84.2873768 47.2011083 84.2873768 47.2011083 70.8430351 44.2890917 70.8430351"></polygon>
                        <path d="M49.7020623,84.2873768 L52.6140789,84.2873768 L52.6140789,75.3915264 L49.7020623,75.3915264 L49.7020623,84.2873768 Z M51.1202176,73.9901491 C50.8685467,73.9901491 50.6420429,73.9537285 50.4405016,73.8808871 C50.2391649,73.8082504 50.0670874,73.707582 49.9244739,73.578882 C49.7818604,73.450182 49.6711661,73.2991795 49.5930049,73.1256698 C49.5146391,72.9521601 49.4753539,72.7647369 49.4753539,72.5634002 C49.4753539,72.3563343 49.5187313,72.1633866 49.6054862,71.9843525 C49.692241,71.8053183 49.8111197,71.6485866 49.9621223,71.5143622 C50.1133294,71.3801377 50.2950235,71.2737402 50.5076138,71.1953744 C50.7202041,71.1172132 50.952437,71.077928 51.2043126,71.077928 C51.450459,71.077928 51.6755305,71.1157809 51.8797318,71.1912822 C52.0839331,71.2667835 52.2574428,71.3688841 52.4000563,71.4975841 C52.5428744,71.6262841 52.6533641,71.7772866 52.7315253,71.9507963 C52.8098911,72.1241014 52.8491763,72.3117293 52.8491763,72.513066 C52.8491763,72.7201318 52.8057989,72.9130795 52.719044,73.0921137 C52.6322892,73.2711479 52.5134105,73.4278795 52.3624079,73.562104 C52.2114054,73.6963285 52.0295067,73.8012936 51.8169164,73.8767949 C51.6043261,73.9522962 51.3720932,73.9901491 51.1202176,73.9901491 L51.1202176,73.9901491 Z" id="Fill-27"></path>
                        <path d="M55.8367555,77.1959045 L54.0492782,77.1959045 L54.2338369,75.9623078 C54.5303175,75.8559104 54.7877175,75.755242 55.0058323,75.6600981 C55.2241517,75.5649542 55.4156671,75.4628536 55.5807878,75.3537962 C55.7459084,75.2447388 55.8913865,75.1258601 56.017222,74.9971601 C56.1430574,74.8684601 56.2633684,74.7160253 56.3781549,74.5398557 C56.4927367,74.3634814 56.6087509,74.163577 56.7264019,73.9397331 C56.8438483,73.7158892 56.9780728,73.4529647 57.1290754,73.150755 L58.5726024,73.150755 L58.5726024,75.3916492 L61.7197164,75.3916492 L61.3084493,77.1959045 L58.748772,77.1959045 L58.748772,80.9975674 C58.748772,81.551448 58.8930224,81.940208 59.181114,82.1640519 C59.4692056,82.3878957 59.8819049,82.4998177 60.4190075,82.4998177 C60.6315978,82.4998177 60.8482803,82.4816073 61.0692596,82.4451867 C61.290239,82.4089706 61.5042615,82.3488151 61.7113274,82.2647202 L61.7113274,83.5152996 C61.2748932,83.8340827 60.7950816,84.0706124 60.2720972,84.2244795 C59.7489081,84.3783466 59.2271514,84.4552802 58.7068269,84.4552802 C58.1922315,84.4552802 57.7529328,84.3838711 57.3893399,84.2412576 C57.0257471,84.0984395 56.7290619,83.8928059 56.4996935,83.6243569 C56.2703251,83.3557034 56.1025445,83.0313957 55.9961471,82.6508202 C55.8899542,82.2704493 55.8367555,81.8424042 55.8367555,81.3668894 L55.8367555,77.1959045 Z" id="Fill-28"></path>
                        <polygon id="Fill-29" points="62.8526447 75.3915673 65.9913697 75.3915673 67.3004676 80.4603831 67.6530115 82.2145088 67.8207921 82.2145088 68.1481689 80.4603831 69.4740448 75.3915673 71.9582208 75.3915673 67.6278444 88.7855748 65.0849452 88.7855748 67.0068515 84.2874177 65.7394941 84.2874177"></polygon>
                    </g>
                </g>
                <g id="Group-5" transform="translate(77.000000, 90.000000)">
                    <path d="M193,96.5 C193,149.795308 149.795308,193 96.5,193 C43.2046916,193 0,149.795308 0,96.5 C0,43.2046916 43.2046916,0 96.5,0 C149.795308,0 193,43.2046916 193,96.5" id="Fill-1" stroke="#FFFFFF" stroke-width="6" fill="#FCB040"></path>
                    <path d="M88,34 L101.663418,57.0256057 L97.7641431,59.5751081 C96.7690731,60.2259078 97.0516693,61.7536455 98.2133514,62.005558 L114.907084,65.6259189 C115.577215,65.7710525 116.248879,65.3868935 116.463665,64.7354801 L121.932407,48.1261272 C122.301838,47.004027 121.143531,45.9877854 120.078809,46.5002019 L116.085949,48.422531 L110.518099,38.5043561 C108.955995,35.7222719 106.014049,34 102.823873,34 L88,34 Z" id="Fill-3" fill="#FFFFFF"></path>
                    <path d="M75.9339776,56.9728712 L83.5923035,61.5410493 C85.4778122,62.665911 87.9186946,62.0436471 89.0352717,60.1535358 L93.5893353,52.4467297 L83.4683416,36 L74.5255992,51.5971002 C73.4501381,53.473097 74.0766978,55.8651924 75.9339776,56.9728712" id="Fill-5" fill="#FFFFFF"></path>
                    <path d="M136.284289,86.926757 L109.510065,86.9374963 L109.305405,82.2830972 C109.253243,81.0953341 107.794851,80.5592912 106.98603,81.4297856 L95.3581638,93.9434883 C94.8914658,94.4457793 94.8794992,95.2196203 95.3302417,95.7360257 L106.828623,108.91096 C107.605226,109.801092 109.070676,109.323042 109.172545,108.145711 L109.55517,103.730951 L120.926215,103.999433 C124.115777,104.074608 127.097612,102.422294 128.724458,99.677951 L136.284289,86.926757 Z" id="Fill-7" fill="#FFFFFF"></path>
                    <path d="M121.90687,64.4817112 L114.071806,68.7396778 C112.142727,69.7878305 111.433321,72.2047796 112.489759,74.1292565 L116.796512,81.9769004 L136.105104,81.6580976 L127.249196,66.0119036 C126.18386,64.1300769 123.8068,63.4492073 121.90687,64.4817112" id="Fill-9" fill="#FFFFFF"></path>
                    <path d="M65.6967365,102.120958 L78.6663979,78.6973859 L82.8363025,80.7746673 C83.9004106,81.3048803 85.0762071,80.2892523 84.7067762,79.1594813 L79.3982023,62.9232412 C79.185258,62.271521 78.5142071,61.8861347 77.8437699,62.0300409 L60.7465473,65.7004161 C59.5916157,65.9486466 59.2995076,67.4616561 60.2798494,68.1216609 L63.9557476,70.5962953 L58.2090115,80.4122937 C56.5972007,83.1655353 56.5968939,86.574486 58.2087047,89.3277277 L65.6967365,102.120958 Z" id="Fill-11" fill="#FFFFFF"></path>
                    <path d="M91.9062671,100.950638 L91.9799078,92.0333625 C91.998318,89.838256 90.2281797,88.0460254 88.0327663,88.0371272 L79.0814324,88 L70,105.042913 L87.9781494,104.881517 C90.1407313,104.862186 91.8881638,103.112913 91.9062671,100.950638" id="Fill-13" fill="#FFFFFF"></path>
                    <path d="M28.5435008,136.850983 C29.13907,136.867859 29.6048474,136.703395 29.9405262,136.35759 C30.2758983,136.011479 30.49007,135.563805 30.5824277,135.013647 L34.4583832,135.001067 C34.408062,135.999512 34.1122719,136.893019 33.5713196,137.681589 C33.0300604,138.470158 32.300097,139.080762 31.3814293,139.512787 C30.4627615,139.944813 29.4790445,140.148245 28.4302782,140.123085 C26.6181034,140.08964 25.2210779,139.437306 24.2395088,138.166083 C23.2576328,136.895167 22.8593593,135.252673 23.0437679,133.239213 L23.0815088,132.93698 C23.2324722,131.561126 23.6184722,130.342372 24.2395088,129.281026 C24.8602385,128.219679 25.6761161,127.399506 26.6871415,126.820813 C27.6981669,126.241813 28.8288585,125.969035 30.0789094,126.002787 C31.6646391,126.036233 32.9168379,126.541592 33.8355056,127.519172 C34.7541733,128.496446 35.196938,129.815841 35.163186,131.477053 L31.2869237,131.464473 C31.3289603,130.030013 30.8128617,129.30005 29.7389348,129.274889 C28.2793148,129.224568 27.4401177,130.449458 27.2219571,132.949867 L27.1087345,134.229374 L27.0961542,134.706198 C27.0961542,136.111201 27.5785008,136.826129 28.5435008,136.850983" id="Fill-15" fill="#FFFFFF"></path>
                    <path d="M40.1787217,133.281538 L40.1409809,134.022854 C40.0234626,135.890567 40.594178,136.841452 41.8525134,136.874897 C43.4802797,136.925218 44.424108,135.605823 44.6843052,132.917323 L44.7346263,131.773745 C44.7511955,131.019848 44.6106645,130.419063 44.3130333,129.970775 C44.0150953,129.522794 43.5766263,129.290212 42.9979332,129.273336 C42.2342177,129.248176 41.6070445,129.560228 41.1164133,130.209494 C40.6254753,130.858759 40.3128092,131.882672 40.1787217,133.281538 M43.2621192,126.001234 C44.4787249,126.01811 45.5314801,126.322185 46.4209983,126.913765 C47.3102098,127.505346 47.9625437,128.329508 48.3779999,129.386866 C48.7931494,130.443916 48.9422718,131.618486 48.8247535,132.910573 L48.7995929,133.187339 C48.5645564,135.276587 47.7885675,136.962959 46.4713195,138.246762 C45.1540715,139.530258 43.5263052,140.155284 41.5883274,140.121839 C40.3800063,140.104963 39.3355357,139.805184 38.4546088,139.221888 C37.573682,138.638899 36.9213481,137.823021 36.4976072,136.774255 C36.0738664,135.725489 35.9207551,134.559204 36.0382734,133.275401 C36.2478425,131.043781 37.0137058,129.265052 38.3349427,127.939519 C39.6564864,126.613986 41.298674,125.967789 43.2621192,126.001234" id="Fill-17" fill="#FFFFFF"></path>
                    <path d="M56.2296963,126.252894 L55.9403498,127.888945 C57.0308458,126.596858 58.3441049,125.967537 59.8795135,126.001289 C61.137849,126.026449 62.0755405,126.494068 62.6922814,127.404451 C63.3087154,128.314834 63.5333196,129.617354 63.3654801,131.31201 L61.9307138,139.88256 L57.7776852,139.88256 L59.2250318,131.276724 C59.2584769,130.982775 59.2667615,130.713986 59.2501924,130.470358 C59.1912798,129.672584 58.7215135,129.27339 57.8405866,129.27339 C57.1106232,129.256514 56.4435612,129.580227 55.8397075,130.243607 L54.1404483,139.88256 L50,139.88256 L52.3660143,126.265475 L56.2296963,126.252894 Z" id="Fill-19" fill="#FFFFFF"></path>
                    <path d="M71.6515755,135.96778 C71.7605024,135.413941 71.3327727,134.998791 70.3677727,134.721718 L69.4742655,134.495273 C68.0143386,134.109273 66.9447075,133.568321 66.2650652,132.871802 C65.5854229,132.175591 65.26662,131.348974 65.3086566,130.392566 C65.3506932,129.083602 65.9315342,128.020415 67.0517933,127.202389 C68.1717456,126.384364 69.5371669,125.983635 71.1480572,126.000511 C72.750663,126.017081 74.0488871,126.423946 75.0433434,127.221106 C76.0374928,128.018267 76.5428521,129.092194 76.5597281,130.442887 L72.4318601,130.430306 C72.4653052,129.35638 71.9912432,128.819416 71.0096741,128.819416 C70.5902289,128.819416 70.2002401,128.943071 69.8394006,129.190688 C69.4785612,129.438305 69.2646963,129.76754 69.1974992,130.178701 C69.0548203,130.858343 69.6546852,131.323814 70.9970938,131.575726 C72.1633784,131.852492 73.0651701,132.173443 73.7030827,132.538271 C74.3406884,132.903407 74.8273307,133.354149 75.1627027,133.891112 C75.4983816,134.428076 75.6536407,135.074273 75.6284801,135.829397 C75.6033196,136.651718 75.3348378,137.38567 74.823035,138.031868 C74.3112321,138.677758 73.5708362,139.193856 72.6018474,139.57955 C71.6325517,139.96555 70.5819444,140.145969 69.4491049,140.120809 C68.4675358,140.112524 67.5550048,139.906944 66.7118188,139.504068 C65.8686328,139.101499 65.2101622,138.554103 64.7361002,137.86188 C64.2620382,137.169658 64.0165692,136.374645 64,135.476842 L67.8507949,135.502003 C67.8676709,136.710324 68.4718315,137.305893 69.6632766,137.289324 C70.1750795,137.289324 70.6110938,137.173953 70.9719332,136.943213 C71.3327727,136.712472 71.5592178,136.387225 71.6515755,135.96778" id="Fill-21" fill="#FFFFFF"></path>
                    <path d="M85.0232711,129.274905 C84.4359865,129.258029 83.9263315,129.441824 83.494306,129.825983 C83.0619738,130.209835 82.686713,130.852964 82.3679102,131.754142 L86.5083585,131.754142 L86.5838402,131.390848 C86.6341614,131.09874 86.6424459,130.823508 86.6090008,130.564538 C86.4663219,129.729943 85.9376431,129.300066 85.0232711,129.274905 L85.0232711,129.274905 Z M84.0165413,140.123101 C82.7999356,140.114816 81.7155763,139.827617 80.7631566,139.261197 C79.8110437,138.694778 79.0915127,137.906209 78.6048704,136.895183 C78.1182281,135.884158 77.9252281,134.770342 78.0258704,133.553736 L78.0636113,133.201488 C78.2903633,130.961277 79.0685,129.188991 80.3983283,127.884323 C81.7281566,126.579655 83.3577639,125.952482 85.2874571,126.002803 C86.4537417,126.019679 87.4521868,126.315776 88.2827925,126.891401 C89.1133983,127.466719 89.7218545,128.260811 90.1075477,129.273371 C90.4935477,130.28593 90.6193506,131.422452 90.4852631,132.682628 L90.2459308,134.409503 L82.1411582,134.409503 C82.1580342,135.122897 82.3593188,135.70159 82.7453188,136.146503 C83.1313188,136.591108 83.6934428,136.825838 84.4316908,136.850999 C85.6314205,136.884751 86.7096431,136.423269 87.6660517,135.46686 L89.4027448,137.76353 C88.890942,138.491345 88.1757067,139.062674 87.257039,139.476903 C86.3383712,139.890825 85.3337894,140.106531 84.2429865,140.123101 L84.0165413,140.123101 Z" id="Fill-23" fill="#FFFFFF"></path>
                    <path d="M100.803725,130.127868 C100.359119,130.060671 99.9310827,130.018941 99.5199221,130.002065 C98.2784626,129.968313 97.3303386,130.39635 96.6758569,131.285561 L95.1404483,139.906432 L91,139.906432 L93.3660143,126.289347 L97.2296963,126.276766 L96.9148824,128.063781 C97.8044006,126.687927 98.8531669,126 100.061181,126 C100.405145,126 100.833181,126.058606 101.344984,126.176124 L100.803725,130.127868 Z" id="Fill-25" fill="#FFFFFF"></path>
                    <polygon id="Fill-27" fill="#FFFFFF" points="106.958474 134.520229 110.368959 126 114.836801 126 108.39324 139.617086 104.17731 139.617086 102 126 106.253671 126"></polygon>
                    <path d="M118.189494,137.127702 C119.036975,137.161147 119.779519,136.788034 120.417125,136.007749 L120.832274,133.817859 L119.762643,133.805279 C119.099877,133.822155 118.529161,134.016996 118.05111,134.390416 C117.572753,134.763835 117.291691,135.27349 117.207924,135.919381 C117.165888,136.263651 117.230937,136.546554 117.403072,136.76901 C117.5749,136.991466 117.837245,137.110826 118.189494,137.127702 L118.189494,137.127702 Z M120.555508,139.871125 C120.43799,139.544037 120.379384,139.132877 120.379384,138.63795 C119.448136,139.661555 118.336468,140.156482 117.044381,140.123037 C115.86122,140.106161 114.879651,139.711877 114.099366,138.939877 C113.319082,138.168183 112.954253,137.23264 113.004575,136.133552 C113.046304,134.656749 113.663045,133.522069 114.85449,132.729204 C116.045935,131.936339 117.673395,131.539907 119.737482,131.539907 L121.121928,131.565067 L121.272891,130.797363 L121.323212,130.130301 C121.289767,129.366893 120.907756,128.972608 120.177792,128.947447 C119.271705,128.930571 118.713877,129.429794 118.504001,130.445115 L114.350972,130.457695 C114.393009,129.543017 114.690947,128.748004 115.244479,128.072657 C115.798319,127.397311 116.551295,126.877223 117.503714,126.512088 C118.455827,126.14726 119.469001,125.977272 120.542928,126.002433 C121.574818,126.027594 122.478757,126.243606 123.255053,126.650471 C124.031042,127.057643 124.61219,127.623756 124.997883,128.34973 C125.383883,129.075398 125.530858,129.912141 125.4385,130.860265 L124.41919,137.266085 L124.356288,138.046369 C124.322536,138.667406 124.402314,139.195778 124.595314,139.632099 L124.582734,139.871125 L120.555508,139.871125 Z" id="Fill-29" fill="#FFFFFF"></path>
                    <path d="M133.921919,123 L133.330339,126.385324 L135.507649,126.385324 L134.99155,129.330339 L132.814547,129.330339 L131.757189,135.585196 C131.698583,136.012925 131.725892,136.336024 131.839114,136.554184 C131.952337,136.772345 132.235547,136.889863 132.688437,136.906432 C132.864868,136.915024 133.225401,136.893852 133.770955,136.843531 L133.468722,139.914348 C132.77251,140.140793 132.029967,140.245731 131.241397,140.228855 C129.957595,140.212286 128.99689,139.834571 128.359285,139.096323 C127.721679,138.358075 127.461482,137.355334 127.579,136.088407 L128.686679,129.330339 L127,129.330339 L127.503518,126.385324 L129.18989,126.385324 L129.781471,123 L133.921919,123 Z" id="Fill-31" fill="#FFFFFF"></path>
                    <path d="M138.730843,123.152149 C138.713967,122.539704 138.929979,122.027901 139.378881,121.616741 C139.827782,121.20558 140.371189,121 141.008795,121 C141.654685,121 142.193797,121.184715 142.625822,121.553839 C143.058154,121.922963 143.282452,122.40531 143.299328,123.001186 C143.315897,123.621916 143.102032,124.135866 142.657426,124.542731 C142.21282,124.949596 141.667266,125.153029 141.021375,125.153029 C140.392054,125.153029 139.857238,124.970768 139.416622,124.605633 C138.976312,124.240804 138.747719,123.75631 138.730843,123.152149 L138.730843,123.152149 Z M140.153029,140.204881 L136,140.204881 L138.366014,126.587795 L142.519043,126.587795 L140.153029,140.204881 Z" id="Fill-33" fill="#FFFFFF"></path>
                    <path d="M147.178722,133.281538 L147.140981,134.022854 C147.023463,135.890567 147.594178,136.841452 148.852513,136.874897 C150.48028,136.925218 151.424108,135.605823 151.684305,132.917323 L151.734626,131.773745 C151.751195,131.019848 151.610664,130.419063 151.313033,129.970775 C151.015095,129.522794 150.576626,129.290212 149.997933,129.273336 C149.234218,129.248176 148.607044,129.560228 148.116413,130.209494 C147.625475,130.858759 147.312809,131.882672 147.178722,133.281538 M150.262119,126.001234 C151.478725,126.01811 152.53148,126.322185 153.420998,126.913765 C154.31021,127.505346 154.962544,128.329508 155.378,129.386866 C155.793149,130.443916 155.942272,131.618486 155.824754,132.910573 L155.799593,133.187339 C155.564556,135.276587 154.788568,136.962959 153.471319,138.246762 C152.154071,139.530258 150.526305,140.155284 148.588327,140.121839 C147.380006,140.104963 146.335536,139.805184 145.454609,139.221888 C144.573682,138.638899 143.921348,137.823021 143.497607,136.774255 C143.073866,135.725489 142.920755,134.559204 143.038273,133.275401 C143.247843,131.043781 144.013706,129.265052 145.334943,127.939519 C146.656486,126.613986 148.298674,125.967789 150.262119,126.001234" id="Fill-35" fill="#FFFFFF"></path>
                    <path d="M162.229696,126.252894 L161.94035,127.888945 C163.030846,126.596858 164.344105,125.967537 165.879514,126.001289 C167.137849,126.026449 168.075541,126.494068 168.692281,127.404451 C169.308715,128.314834 169.53332,129.617354 169.36548,131.31201 L167.930714,139.88256 L163.777685,139.88256 L165.225032,131.276724 C165.258477,130.982775 165.266762,130.713986 165.250192,130.470358 C165.19128,129.672584 164.721514,129.27339 163.840587,129.27339 C163.110623,129.256514 162.443561,129.580227 161.839707,130.243607 L160.140448,139.88256 L156,139.88256 L158.366014,126.265475 L162.229696,126.252894 Z" id="Fill-37" fill="#FFFFFF"></path>
                </g>
                <g id="Group-8" transform="translate(287.000000, 151.000000)">
                    <path d="M253,126.5 C253,196.363798 196.363798,253 126.5,253 C56.6362019,253 0,196.363798 0,126.5 C0,56.6362019 56.6362019,0 126.5,0 C196.363798,0 253,56.6362019 253,126.5" id="Fill-1" stroke="#FFFFFF" stroke-width="6" fill="#B94E41"></path>
                    <path d="M89.8903771,195.216168 C90.8714057,194.202559 91.6517237,192.947614 92.231331,191.451737 C92.8105361,189.955055 93.1001386,188.386776 93.1001386,186.745293 C93.1001386,185.779951 92.9070703,185.048705 92.5205313,184.549141 C92.1347968,184.050783 91.6195456,183.801001 90.9759844,183.801001 C89.8179765,183.801001 88.4182308,185.024169 86.7771498,187.4693 C86.7449717,188.885939 86.7292849,190.961424 86.7292849,193.695754 C86.7292849,195.175945 86.7119892,196.318668 86.6806156,197.122718 C87.8390258,196.865695 88.908544,196.230179 89.8903771,195.216168 M79.6336203,213.171928 C80.2124232,209.390201 80.5824709,204.68416 80.7437634,199.053401 C79.3593024,202.270805 78.2652483,205.344212 77.4616013,208.272416 C76.6579542,211.200217 76.254924,213.661838 76.254924,215.65728 C76.254924,216.686978 76.3755917,217.474939 76.6169272,218.022368 C76.8582626,218.569395 77.1402229,218.842908 77.4616013,218.842908 C78.3304089,218.842908 79.0548175,216.952045 79.6336203,213.171928 M106.783859,191.330667 C107.025194,191.716803 107.145862,192.247741 107.145862,192.923481 C107.145862,194.211005 106.839768,195.208525 106.228385,195.91604 C104.845131,197.62188 103.356895,199.021625 101.764081,200.115277 C100.17167,201.209331 98.3616537,201.756358 96.3340337,201.756358 C94.6281943,201.756358 93.2449399,201.145377 92.1826617,199.922209 C90.3493167,201.113199 88.4339176,201.72418 86.4392801,201.756358 C86.0205631,207.966322 85.0709081,213.155034 83.5915218,217.322495 C82.1105266,221.489152 79.9393119,223.573083 77.0758668,223.573083 C75.3378493,223.573083 74.0511291,222.945611 73.2136951,221.690667 C72.37787,220.435722 71.9591529,218.698107 71.9591529,216.477821 C71.9591529,213.323969 72.6827571,209.648028 74.131172,205.448791 C75.5791847,201.249554 77.8151577,196.62436 80.8402976,191.572002 C80.8402976,186.874408 80.8081196,183.608334 80.7437634,181.773783 C80.7115854,180.841021 81.0816331,180.101328 81.8539065,179.553899 C82.6257777,179.006872 83.5915218,178.733358 84.7495297,178.733358 C85.4256712,178.733358 85.9159844,178.870115 86.221676,179.143226 C86.5273676,179.417142 86.6963024,179.956527 86.7292849,180.760576 C86.7292849,181.565028 86.7449717,182.15992 86.7771498,182.546056 C87.8060432,181.259738 88.8204566,180.334217 89.8179765,179.771101 C90.8150941,179.207985 91.8761657,178.926024 93.0036045,178.926024 C94.8051736,178.926024 96.2773199,179.650031 97.419641,181.098044 C98.5619622,182.546056 99.133525,184.445366 99.133525,186.793962 C99.133525,188.499802 98.8596092,190.15657 98.3125822,191.765071 C97.7651529,193.374778 97.0093707,194.838478 96.0440289,196.157376 C96.7201704,196.350444 97.2828843,196.447381 97.7337793,196.447381 C98.7960576,196.447381 99.8092642,196.061244 100.775008,195.288568 C101.739546,194.516295 102.978401,193.229977 104.49077,191.427201 C104.877309,190.97711 105.311713,190.751462 105.793981,190.751462 C106.211894,190.751462 106.542523,190.94453 106.783859,191.330667" id="Fill-7" fill="#FFFFFF"></path>
                    <path d="M109.582948,185.828299 C108.762005,187.211955 108.351735,188.886019 108.351735,190.848076 L108.351735,190.94461 C110.249838,190.49452 111.74652,189.818781 112.840976,188.917393 C113.934226,188.016809 114.482058,186.971022 114.482058,185.780032 C114.482058,185.169051 114.313123,184.678335 113.975253,184.307886 C113.637383,183.93824 113.178444,183.752814 112.599641,183.752814 C111.408651,183.752814 110.403086,184.445447 109.582948,185.828299 M125.752021,191.330747 C125.993356,191.716884 126.114426,192.247822 126.114426,192.923561 C126.114426,194.211086 125.80793,195.208606 125.197352,195.916121 C124.006361,197.364134 122.32546,198.699925 120.153038,199.922289 C117.981019,201.145458 115.656557,201.756439 113.178444,201.756439 C109.799748,201.756439 107.176833,200.839364 105.310908,199.005215 C103.444178,197.171065 102.511819,194.661176 102.511819,191.475548 C102.511819,189.255262 102.977597,187.188224 103.911565,185.273227 C104.844326,183.359035 106.138689,181.838622 107.796663,180.711987 C109.454236,179.585755 111.327803,179.022639 113.419779,179.022639 C115.285705,179.022639 116.781984,179.577711 117.908619,180.687854 C119.034449,181.797997 119.598369,183.302723 119.598369,185.200827 C119.598369,187.421113 118.801962,189.327663 117.208746,190.920477 C115.616334,192.513291 112.921019,193.776682 109.124008,194.709444 C109.927655,196.190037 111.456515,196.92973 113.709784,196.92973 C115.157395,196.92973 116.80652,196.422925 118.656759,195.409316 C120.506595,194.395707 122.107856,193.068362 123.459736,191.427281 C123.845471,190.977191 124.279875,190.751542 124.762948,190.751542 C125.180056,190.751542 125.511088,190.94461 125.752021,191.330747" id="Fill-9" fill="#FFFFFF"></path>
                    <path d="M131.664498,195.626679 C132.308059,194.79005 132.774641,193.679907 133.064244,192.29625 L134.850126,183.415105 C133.49905,183.447686 132.251346,183.954088 131.109829,184.935519 C129.966703,185.917352 129.058478,187.212116 128.382336,188.821019 C127.706597,190.430325 127.368727,192.13536 127.368727,193.937331 C127.368727,194.934851 127.56984,195.674946 127.972066,196.157215 C128.374292,196.640288 128.928961,196.881624 129.637683,196.881624 C130.344796,196.881624 131.020133,196.463711 131.664498,195.626679 M123.121223,199.584581 C121.931037,198.136166 121.335341,196.238465 121.335341,193.889064 C121.335341,191.314819 121.931037,188.877733 123.121223,186.5766 C124.311409,184.276271 125.896581,182.42563 127.875532,181.025482 C129.854482,179.626139 131.954503,178.925864 134.174387,178.925864 C134.882304,178.925864 135.356931,179.063425 135.598668,179.336536 C135.840004,179.610452 136.040312,180.101167 136.202007,180.80828 C136.877746,180.680372 137.584859,180.615614 138.325759,180.615614 C139.901679,180.615614 140.690846,181.17873 140.690846,182.304962 C140.690846,182.980701 140.449109,184.590007 139.96684,187.131671 C139.22594,190.832148 138.856697,193.405991 138.856697,194.854406 C138.856697,195.336674 138.976962,195.722811 139.2187,196.012816 C139.460036,196.302418 139.773369,196.44722 140.159908,196.44722 C140.770487,196.44722 141.510985,196.053441 142.380195,195.264676 C143.249002,194.476716 144.423501,193.197236 145.90329,191.427442 C146.289829,190.976949 146.724233,190.751703 147.206904,190.751703 C147.624816,190.751703 147.954641,190.944369 148.196781,191.330506 C148.437714,191.716643 148.55798,192.247983 148.55798,192.92332 C148.55798,194.210845 148.252288,195.208767 147.641307,195.916282 C146.321203,197.557363 144.921457,198.941019 143.442071,200.067252 C141.961478,201.193886 140.529152,201.756197 139.146702,201.756197 C138.084424,201.756197 137.110233,201.394597 136.225738,200.67059 C135.340439,199.946182 134.673147,198.956706 134.223056,197.701762 C132.548993,200.405121 130.44133,201.756197 127.900067,201.756197 C125.904625,201.756197 124.311409,201.032191 123.121223,199.584581" id="Fill-11" fill="#FFFFFF"></path>
                    <path d="M146.506025,199.077776 C144.751919,197.291894 143.875871,194.934851 143.875871,192.006647 C143.875871,189.399822 144.390318,187.115582 145.420418,185.152721 C146.449311,183.190261 147.785103,181.677088 149.426184,180.615614 C151.067265,179.553738 152.788389,179.0228 154.591567,179.0228 C156.360556,179.0228 157.736168,179.545693 158.718001,180.59148 C159.699432,181.63767 160.190148,182.980299 160.190148,184.621783 C160.190148,185.973261 159.891696,187.115582 159.297207,188.048344 C158.70151,188.98191 157.921594,189.448492 156.95585,189.448492 C156.344869,189.448492 155.853752,189.303288 155.483704,189.013686 C155.113656,188.724485 154.929035,188.322259 154.929035,187.807008 C154.929035,187.582566 154.960811,187.324337 155.025167,187.035137 C155.089523,186.745534 155.138192,186.536377 155.17037,186.407665 C155.330456,185.924994 155.411706,185.474903 155.411706,185.056186 C155.411706,184.638274 155.307127,184.316091 155.09797,184.090442 C154.88841,183.866 154.591567,183.752573 154.205028,183.752573 C153.464129,183.752573 152.772703,184.083202 152.129141,184.742048 C151.485178,185.4021 150.971536,186.295042 150.584997,187.421274 C150.198458,188.547908 150.005792,189.785959 150.005792,191.13784 C150.005792,194.870897 151.630381,196.736822 154.880366,196.736822 C156.199666,196.736822 157.623947,196.294776 159.152405,195.409477 C160.680461,194.524983 162.184785,193.197236 163.664976,191.42704 C164.051515,190.976949 164.485919,190.751703 164.968187,190.751703 C165.3861,190.751703 165.716327,190.944369 165.958065,191.330506 C166.1994,191.716643 166.319666,192.247983 166.319666,192.92332 C166.319666,194.146891 166.013974,195.144008 165.402591,195.916282 C163.88982,197.782609 162.079804,199.222175 159.972544,200.236186 C157.864881,201.249393 155.829618,201.756197 153.867159,201.756197 C150.712904,201.756197 148.259327,200.863256 146.506025,199.077776" id="Fill-13" fill="#FFFFFF"></path>
                    <path d="M168.757275,185.828299 C167.936332,187.211955 167.526062,188.886019 167.526062,190.848076 L167.526062,190.94461 C169.424165,190.49452 170.920847,189.818781 172.015303,188.917393 C173.108553,188.016809 173.656384,186.971022 173.656384,185.780032 C173.656384,185.169051 173.48745,184.678335 173.14958,184.307886 C172.81171,183.93824 172.352771,183.752814 171.773968,183.752814 C170.582977,183.752814 169.577413,184.445447 168.757275,185.828299 M180.678844,192.77876 C180.920582,193.164897 181.040847,193.695835 181.040847,194.371574 C181.040847,195.529984 180.767334,196.527906 180.220709,197.364134 C179.319723,198.748192 178.136375,199.825755 176.673078,200.598029 C175.208574,201.370302 173.462914,201.756439 171.436098,201.756439 C168.346602,201.756439 165.949739,200.831722 164.2439,198.981081 C162.538462,197.131245 161.686146,194.629401 161.686146,191.475548 C161.686146,189.255262 162.151923,187.188224 163.085892,185.273227 C164.018653,183.359035 165.313016,181.838622 166.97099,180.711987 C168.628562,179.585755 170.50213,179.022639 172.594106,179.022639 C174.460031,179.022639 175.956311,179.577711 177.082946,180.687854 C178.208776,181.797997 178.772696,183.302723 178.772696,185.200827 C178.772696,187.421113 177.976289,189.327663 176.383073,190.920477 C174.790661,192.513291 172.079659,193.776682 168.25047,194.709444 C169.022744,196.190037 170.325955,196.92973 172.159702,196.92973 C173.478601,196.92973 174.565012,196.62444 175.417731,196.012655 C176.270047,195.401674 177.259925,194.371574 178.386157,192.923561 C178.772696,192.44089 179.206698,192.199555 179.689771,192.199555 C180.107683,192.199555 180.437508,192.392623 180.678844,192.77876" id="Fill-15" fill="#FFFFFF"></path>
                    <g id="Page-1" transform="translate(84.755000, 32.890000)" fill="#FFFFFF">
                        <g id="Group-3" transform="translate(1.306640, 0.003028)">
                            <path d="M62.9900019,75.3238031 L64.1986435,75.6239917 L62.082323,84.0327323 C61.5100148,86.3057741 62.0143777,88.6683534 63.4664898,90.5149025 C64.9181664,92.3614515 67.1037389,93.4207625 69.4626589,93.4207625 C73.2244742,93.4207625 76.4623271,90.6321231 76.9941294,86.9338344 L78.5568704,76.0699491 C79.0891082,72.372958 78.0703649,68.7447421 75.689232,65.8535887 C73.6173372,63.3383199 70.7902047,61.7166959 67.6172482,61.1954751 L64.2043057,75.6006341 L62.9900019,75.3238031 Z M69.4626589,96.8811496 C66.023148,96.8811496 62.836254,95.3369519 60.7199334,92.6443382 C58.6031773,89.9517245 57.8675392,86.5069091 58.7016108,83.1931559 L60.8131404,74.8051776 L64.0070031,60.6279717 C64.4447273,58.6853969 64.0313937,56.6398755 62.8724044,55.0156563 C61.7138506,53.3914371 59.9076392,52.3252054 57.916756,52.0907641 L57.6388773,52.0578905 C53.8043257,51.6084727 50.3534905,54.2240928 49.7833601,58.0175421 L47.2841941,74.2195071 L43.8372789,73.7125604 L52.46894,13.8028786 C53.1270508,9.1806665 50.0155064,4.92222763 45.3839046,4.11076685 L44.9013191,4.02598737 C42.5153952,3.60771308 40.1329557,4.17218872 38.1921604,5.61473759 C36.2522361,7.05728646 35.0366258,9.16942024 34.7692002,11.5614128 L30.082284,64.8345047 C29.9672997,66.1395032 28.8832244,67.1270112 27.5674384,67.1071139 C26.2499101,67.0975979 25.1832567,66.1066295 25.0870009,64.801631 C24.0260096,50.4721681 22.0695346,24.5573291 20.8874613,11.9917985 C20.6583638,9.55698359 19.4510288,7.40375772 17.4884562,5.92920027 C15.511946,4.44469421 13.0741921,3.87589308 10.620323,4.3248783 L10.3616083,4.37245863 C6.164682,5.14196221 3.23955152,8.90945866 3.55793603,13.1358889 L8.22873699,75.2312378 L4.75351125,75.4890366 L0.0827102856,13.3936878 C-0.368080371,7.40159498 3.77919367,2.0604875 9.72919478,0.969600465 L9.98790942,0.922020142 C13.3642661,0.303475948 16.8647535,1.12229005 19.5899682,3.16954156 C22.3029875,5.20684446 24.039947,8.30562111 24.3565894,11.6699825 C25.256864,21.2409806 26.604445,38.5195585 27.6654363,52.5574839 L31.3022499,11.2196996 C31.6811753,7.82679005 33.3850333,4.86686143 36.1041503,2.84469772 C38.8228317,0.822534013 42.1626025,0.0318355613 45.5075999,0.618371174 L45.990621,0.703150658 C52.4806998,1.84032037 56.8422627,7.80862301 55.9189041,14.289928 L50.7102031,50.4410246 C52.7655472,49.0092894 55.3457248,48.3046681 58.0491621,48.6217261 L58.3270408,48.6541672 C61.2948548,49.0036663 63.9882746,50.5937142 65.7160876,53.0155526 C66.7143603,54.4152792 67.3415473,56.0247917 67.5671604,57.6931309 C71.784993,58.2390069 75.6774723,60.3736332 78.3865717,63.6627311 C81.3487236,67.2589384 82.6684296,71.9598743 82.0063989,76.5595939 L80.4436579,87.4230466 C79.6679496,92.8151948 74.9474963,96.8811496 69.4626589,96.8811496 L69.4626589,96.8811496 Z" id="Fill-1"></path>
                        </g>
                        <g id="Group-6" transform="translate(0.000000, 71.806060)">
                            <path d="M43.4465501,61.8544194 L42.5950567,61.8544194 C32.6571915,61.8544194 23.0634082,58.3230943 15.5811544,51.9118621 C8.10717596,45.5066856 3.21076189,36.633388 1.79349349,26.9270022 L0.138416687,15.5976948 C-0.418211776,11.7834832 0.718564662,7.924719 3.25780092,5.01107306 C5.79790827,2.09612948 9.48088971,0.424329968 13.3629159,0.424329968 L48.9527293,0.424329968 C52.7672458,0.424329968 56.3139012,2.12770552 58.6824032,5.09801529 C61.0513408,8.06789252 61.9084963,11.8864297 61.03479,15.5743372 C59.7085508,21.1702157 54.7402716,25.0782904 48.9527293,25.0782904 L35.1228204,25.0782904 C39.1002313,27.6160518 42.4748458,31.6564863 42.4748458,37.6844806 C42.4748458,38.63998 41.694782,39.4146741 40.7326597,39.4146741 C39.7705374,39.4146741 38.9904736,38.63998 38.9904736,37.6844806 C38.9904736,27.1476019 25.5529921,25.079588 25.4171016,25.0601234 L25.6688475,21.6179033 L48.9527293,21.6179033 C53.115683,21.6179033 56.6889068,18.8067713 57.6431892,14.7819086 C58.2712473,12.1295219 57.654949,9.38283961 55.9510909,7.24648313 C54.2472329,5.11012665 51.6962369,3.88471706 48.9527293,3.88471706 L13.3629159,3.88471706 C10.4930998,3.88471706 7.77006295,5.12050781 5.89242187,7.27546387 C4.01565188,9.42912229 3.17504708,12.2813464 3.58707409,15.1006967 L5.2421509,26.4308692 C6.53877291,35.3123852 11.01924,43.4313185 17.8577561,49.2919165 C24.7071608,55.1615982 33.4925698,58.3940323 42.5950567,58.3940323 L43.4465501,58.3940323 C60.5931458,58.3940323 73.5206023,46.3410715 76.3799653,27.6882874 L78.3277294,14.9843412 C78.4723308,14.0396555 79.3621524,13.3925632 80.3125149,13.5340065 C81.263313,13.6780451 81.9170683,14.5604438 81.7720313,15.5051295 L79.8242672,28.2090756 C78.3399247,37.8925364 74.2484006,46.1944375 67.9913392,52.2176738 C61.4415905,58.5220666 52.9545308,61.8544194 43.4465501,61.8544194" id="Fill-4"></path>
                        </g>
                    </g>
                </g>
            </g>
        </g>
    </g>
</svg>