<svg xmlns="http://www.w3.org/2000/svg" viewBox="0 0 938.23 466.12">
  <defs>
    <style>
      .cls-1 {
        fill: #fff;
      }

      .cls-2 {
        fill: #008F95;
      }
    </style>
  </defs>
  <title>representatives</title>
  <g id="Layer_2" data-name="Layer 2">
    <g id="Layer_1-2" data-name="Layer 1">
      <g>
        <path class="cls-1" d="M397.4,221.81c20.66-24.81,46.72-36,46.72-64.81,0-33.2-48.63-57.33-71.4-58.44-2.16-4.7-4.38-8.28-6.66-10.56h-38a55.26,55.26,0,0,0-8,10.52h0c-22,0-73,24.49-73,58.49,0,27,20,42,43.67,63.07C290.15,226,263.06,421,263.06,421h0a329.83,329.83,0,0,0,34.42,6.68c3.86,16.39,8.73,28.47,14.58,34.32,12.13,12.13,17.49-3.79,19.88-31.35q13.42.45,26.85-.19c3.82,21.2,10.43,35.53,22.27,35.53,9.12,0,15.27-15.45,19-40.12q11.58-2,23-4.88h0S398,227.15,397.4,221.81ZM419.12,154c-8.06,20-13.94,31.4-24.58,43.47-.87-6.77-9.8-24.33-10.76-32-2.17-17.35,3.42-25.51.83-37.36C398.82,135.07,419.12,154,419.12,154Zm-147.06,0s18.17-18,32.17-24.79c-3.2,12,2.05,20.92-.26,38-.79,5.83-9.52,21.45-10.21,26.51C285.69,181.83,283.06,172,272.06,154Z"/>
        <path class="cls-2" d="M354.23,178.18,349.68,107a6.69,6.69,0,1,0-8.18,0l-4.55,71.22a40.39,40.39,0,0,0,4.55,21.35,4.62,4.62,0,0,0,8.18,0h0A40.39,40.39,0,0,0,354.23,178.18Z"/>
        <circle class="cls-1" cx="345.56" cy="39.5" r="39.5"/>
      </g>
      <g>
        <path class="cls-1" d="M197.06,157c0-33.2-48.63-57.33-71.4-58.44-2.16-4.7-4.38-8.28-6.66-10.56H81a55.26,55.26,0,0,0-8,10.52h0C51,98.51,0,123,0,157c0,27,27.73,53.35,43.67,63.07C34,319.35,42,439,65,462c37,37,11-187,30-206,22,21-4,210,39,210,27,0,28-134.95,16.34-244.19C165.46,213.91,197.06,185.82,197.06,157ZM25,154s18.17-8,32.17-14.79A449.31,449.31,0,0,0,46.7,193.75C38.63,181.83,36.67,165.67,25,154Zm122.48,43.47c-2.84-22-6.19-42.28-9.93-59.4,14.21,7,34.51,15.93,34.51,15.93C159.12,166.94,158.12,185.4,147.48,197.47Z"/>
        <circle class="cls-1" cx="98.5" cy="39.5" r="39.5"/>
        <path class="cls-2" d="M107.17,178.18,102.62,107a6.69,6.69,0,1,0-8.18,0l-4.55,71.22a40.39,40.39,0,0,0,4.55,21.35,4.62,4.62,0,0,0,8.18,0h0A40.39,40.39,0,0,0,107.17,178.18Z"/>
      </g>
      <g>
        <path class="cls-1" d="M891.51,221.81c20.66-24.81,46.72-36,46.72-64.81,0-33.2-48.63-57.33-71.4-58.44-2.16-4.7-4.38-8.28-6.66-10.56h-38a55.26,55.26,0,0,0-8,10.52h0c-22,0-73,24.49-73,58.49,0,27,20,42,43.67,63.07C784.27,226,757.18,421,757.18,421h0a329.83,329.83,0,0,0,34.42,6.68c3.86,16.39,8.73,28.47,14.58,34.32,12.13,12.13,17.49-3.79,19.88-31.35q13.42.45,26.85-.19c3.82,21.2,10.43,35.53,22.27,35.53,9.12,0,15.27-15.45,19-40.12q11.58-2,23-4.88h0S892.08,227.15,891.51,221.81ZM913.23,154c-8.06,20-13.94,31.4-24.58,43.47-.87-6.77-9.8-24.33-10.76-32-2.17-17.35,3.42-25.51.83-37.36C892.94,135.07,913.23,154,913.23,154Zm-147.06,0s18.17-18,32.17-24.79c-3.2,12,2.05,20.92-.26,38-.79,5.83-9.52,21.45-10.21,26.51C779.81,181.83,777.18,172,766.18,154Z"/>
        <path class="cls-2" d="M848.34,178.18,843.8,107a6.69,6.69,0,1,0-8.18,0l-4.55,71.22a40.39,40.39,0,0,0,4.55,21.35,4.62,4.62,0,0,0,8.18,0h0A40.39,40.39,0,0,0,848.34,178.18Z"/>
        <circle class="cls-1" cx="839.68" cy="39.5" r="39.5"/>
      </g>
      <g>
        <path class="cls-1" d="M691.18,157c0-33.2-48.63-57.33-71.4-58.44-2.16-4.7-4.38-8.28-6.66-10.56h-38a55.26,55.26,0,0,0-8,10.52h0c-22,0-73,24.49-73,58.49,0,27,27.73,53.35,43.67,63.07C528.16,319.35,536.08,439,559.12,462c37,37,11-187,30-206,22,21-4,210,39,210,27,0,28-134.95,16.34-244.19C659.57,213.91,691.18,185.82,691.18,157Zm-172.06-3s18.17-8,32.17-14.79a449.31,449.31,0,0,0-10.46,54.53C532.75,181.83,530.79,165.67,519.12,154ZM641.6,197.47c-2.84-22-6.19-42.28-9.93-59.4,14.21,7,34.51,15.93,34.51,15.93C653.23,166.94,652.23,185.4,641.6,197.47Z"/>
        <circle class="cls-1" cx="592.62" cy="39.5" r="39.5"/>
        <path class="cls-2" d="M601.28,178.18,596.74,107a6.69,6.69,0,1,0-8.18,0L584,178.18a40.39,40.39,0,0,0,4.55,21.35,4.62,4.62,0,0,0,8.18,0h0A40.39,40.39,0,0,0,601.28,178.18Z"/>
      </g>
    </g>
  </g>
</svg>
